<svg xmlns="http://www.w3.org/2000/svg" width="822.371" height="992.467" viewBox="0 0 822.371 992.467">
  <g id="Grupo_145704" data-name="Grupo 145704" transform="translate(-240.086 -3578.03)">
    <g id="Grupo_145674" data-name="Grupo 145674" transform="translate(-93.338 3387.043)">
      <path id="Trazado_183947" data-name="Trazado 183947" d="M333.671,184.776v868.141c0,15.1-1.974,29.623,5.255,29.623l811.684-1.98c7.227,0,4.79-12.547,4.79-27.643V184.776Z" transform="translate(0 100.914)"/>
      <path id="Trazado_189260" data-name="Trazado 189260" d="M333.763,511.24H1155.25" transform="translate(0 90.055)" fill="none" stroke="#fff" stroke-width="1"/>
      <path id="Trazado_189267" data-name="Trazado 189267" d="M333.763,511.24H1155.25" transform="translate(0 380.055)" fill="none" stroke="#fff" stroke-width="1"/>
      <path id="Trazado_189279" data-name="Trazado 189279" d="M6.346,0H816.025c3.505,0,6.346.3,6.346.662V99.556c0,.365-2.841.662-6.346.662H6.346c-3.505,0-6.346-.3-6.346-.662V.662C0,.3,2.841,0,6.346,0Z" transform="translate(333.424 190.987)" fill="#ffa726"/>
      <rect id="Rectángulo_42587" data-name="Rectángulo 42587" width="23.952" height="738.057" rx="5.408" transform="translate(1113.638 232.837) rotate(90)" fill="#fff"/>
      <path id="Trazado_189280" data-name="Trazado 189280" d="M369.438,160.967a6.506,6.506,0,1,1-6.505-6.508A6.506,6.506,0,0,1,369.438,160.967Z" transform="translate(43.542 51.913)" fill="#fff"/>
      <path id="Trazado_189281" data-name="Trazado 189281" d="M369.438,160.967a6.506,6.506,0,1,1-6.505-6.508A6.506,6.506,0,0,1,369.438,160.967Z" transform="translate(17.57 51.913)" fill="#12263f"/>
      <path id="Trazado_189282" data-name="Trazado 189282" d="M379.254,160.967a6.508,6.508,0,1,1-6.508-6.508A6.508,6.508,0,0,1,379.254,160.967Z" transform="translate(59.702 51.913)" fill="#26a69a"/>
    </g>
    <text id="import_java.util.List_import_org.hibernate.Session_import_org.hibernate.SessionFactory_import_org.hibernate.cfg.Configuration_import_com.jonathan.hibernate.demo.entity.Usuario_public_class_CreateUserDemo_public_static_void_main_String_args_" data-name="import java.util.List;
import org.hibernate.Session;
import org.hibernate.SessionFactory;
import org.hibernate.cfg.Configuration;
import com.jonathan.hibernate.demo.entity.Usuario;

public class CreateUserDemo {

    public static void main(String[] args) " transform="translate(279 3704)" fill="#fff" font-size="16" font-family="Roboto-Bold, Roboto" font-weight="700"><tspan x="0" y="17">import java.util.List;</tspan><tspan x="0" y="41">import org.hibernate.Session;</tspan><tspan x="0" y="65">import org.hibernate.SessionFactory;</tspan><tspan x="0" y="89">import org.hibernate.cfg.Configuration;</tspan><tspan x="0" y="113">import com.jonathan.hibernate.demo.entity.Usuario;</tspan><tspan x="0" y="137"></tspan><tspan x="0" y="161">public class CreateUserDemo {</tspan><tspan x="0" y="185"></tspan><tspan x="0" y="209" xml:space="preserve">    public static void main(String[] args) {</tspan><tspan x="0" y="233" xml:space="preserve">        SessionFactory factory = new Configuration()</tspan><tspan x="0" y="257" xml:space="preserve">                .configure(“hibernate.cfg.xml”)</tspan><tspan x="0" y="281" xml:space="preserve">                .addAnnotatedClass(Usuario.class)</tspan><tspan x="0" y="305" xml:space="preserve">                .buildSessionFactory();</tspan><tspan x="0" y="329" xml:space="preserve">        </tspan><tspan x="0" y="353" xml:space="preserve">        Session session = factory.getCurrentSession();</tspan><tspan x="0" y="377" xml:space="preserve">        </tspan><tspan x="0" y="401" xml:space="preserve">        try {</tspan><tspan x="0" y="425" xml:space="preserve">            System.out.println(“Creando un usuarios…”);</tspan><tspan x="0" y="449" xml:space="preserve">            Usuario usuario1 = new Usuario(“Francisco”,”FFFFF#”);</tspan><tspan x="0" y="473" xml:space="preserve">            </tspan><tspan x="0" y="497" xml:space="preserve">            session.beginTransaction();</tspan><tspan x="0" y="521" xml:space="preserve">            System.out.println(“Guardando los nuevos usuarios …”);</tspan><tspan x="0" y="545" xml:space="preserve">            </tspan><tspan x="0" y="569" xml:space="preserve">            session.save(usuario1);</tspan><tspan x="0" y="593" xml:space="preserve">            System.out.println(“El usuario se almaceno con el ID:”+usuario1.getUserId());</tspan><tspan x="0" y="617" xml:space="preserve">            </tspan><tspan x="0" y="641" xml:space="preserve">            session.getTransaction().commit();</tspan><tspan x="0" y="665" xml:space="preserve">            System.out.println(“Proceso finalizado”);</tspan><tspan x="0" y="689" xml:space="preserve">            </tspan><tspan x="0" y="713" xml:space="preserve">        }finally {</tspan><tspan x="0" y="737" xml:space="preserve">            factory.close();</tspan><tspan x="0" y="761" xml:space="preserve">        }</tspan><tspan x="0" y="785" xml:space="preserve">    }</tspan><tspan x="0" y="809">}</tspan><tspan x="0" y="833"></tspan></text>
  </g>
</svg>
