<svg xmlns="http://www.w3.org/2000/svg" width="822.371" height="1547.738" viewBox="0 0 822.371 1547.738">
  <g id="Grupo_145723" data-name="Grupo 145723" transform="translate(-240.086 -3573.219)">
    <g id="Grupo_145674" data-name="Grupo 145674" transform="translate(-93.338 3387.043)">
      <path id="Trazado_183947" data-name="Trazado 183947" d="M333.671,184.776V1585.213c0,24.353-1.974,47.787,5.255,47.787l811.684-3.195c7.227,0,4.79-20.239,4.79-44.592V184.776Z" transform="translate(0 100.914)"/>
      <path id="Trazado_189260" data-name="Trazado 189260" d="M333.763,511.24H1155.25" transform="translate(0 -16.946)" fill="none" stroke="#fff" stroke-width="1"/>
      <path id="Trazado_189267" data-name="Trazado 189267" d="M333.763,511.24H1155.8" transform="translate(0 259.054)" fill="none" stroke="#fff" stroke-width="1"/>
      <path id="Trazado_189268" data-name="Trazado 189268" d="M333.763,511.24H1155.8" transform="translate(0 620.054)" fill="none" stroke="#fff" stroke-width="1"/>
      <path id="Trazado_189269" data-name="Trazado 189269" d="M333.763,511.24H1155.8" transform="translate(0 1099.054)" fill="none" stroke="#fff" stroke-width="1"/>
      <path id="Trazado_189287" data-name="Trazado 189287" d="M6.346,0H816.025c3.505,0,6.346.3,6.346.662V99.556c0,.365-2.841.662-6.346.662H6.346c-3.505,0-6.346-.3-6.346-.662V.662C0,.3,2.841,0,6.346,0Z" transform="translate(333.424 186.176)" fill="#ffa726"/>
      <rect id="Rectángulo_42589" data-name="Rectángulo 42589" width="23.952" height="738.057" rx="5.408" transform="translate(1113.638 228.025) rotate(90)" fill="#fff"/>
      <path id="Trazado_189288" data-name="Trazado 189288" d="M369.438,160.967a6.506,6.506,0,1,1-6.505-6.508A6.506,6.506,0,0,1,369.438,160.967Z" transform="translate(43.542 47.102)" fill="#fff"/>
      <path id="Trazado_189289" data-name="Trazado 189289" d="M369.438,160.967a6.506,6.506,0,1,1-6.505-6.508A6.506,6.506,0,0,1,369.438,160.967Z" transform="translate(17.57 47.102)" fill="#12263f"/>
      <path id="Trazado_189290" data-name="Trazado 189290" d="M379.254,160.967a6.508,6.508,0,1,1-6.508-6.508A6.508,6.508,0,0,1,379.254,160.967Z" transform="translate(59.702 47.102)" fill="#26a69a"/>
    </g>
    <text id="import_java.util.List_import_org.hibernate.Session_import_org.hibernate.SessionFactory_import_org.hibernate.cfg.Configuration_import_com.jonathan.hibernate.demo.entity.Usuario_public_class_CreateUserDemo_public_static_void_main_String_args_" data-name="import java.util.List;
import org.hibernate.Session;
import org.hibernate.SessionFactory;
import org.hibernate.cfg.Configuration;
import com.jonathan.hibernate.demo.entity.Usuario;

public class CreateUserDemo {

    public static void main(String[] args) " transform="translate(279 3704)" fill="#fff" font-size="16" font-family="Roboto-Bold, Roboto" font-weight="700"><tspan x="0" y="17">import java.util.List;</tspan><tspan x="0" y="41">import org.hibernate.Session;</tspan><tspan x="0" y="65">import org.hibernate.SessionFactory;</tspan><tspan x="0" y="89">import org.hibernate.cfg.Configuration;</tspan><tspan x="0" y="113">import com.jonathan.hibernate.demo.entity.Usuario;</tspan><tspan x="0" y="137"></tspan><tspan x="0" y="161">public class CreateUserDemo {</tspan><tspan x="0" y="185"></tspan><tspan x="0" y="209" xml:space="preserve">    public static void main(String[] args) {</tspan><tspan x="0" y="233" xml:space="preserve">        SessionFactory factory = new Configuration()</tspan><tspan x="0" y="257" xml:space="preserve">                .configure(“hibernate.cfg.xml”)</tspan><tspan x="0" y="281" xml:space="preserve">                .addAnnotatedClass(Usuario.class)</tspan><tspan x="0" y="305" xml:space="preserve">                .buildSessionFactory();     </tspan><tspan x="0" y="329" xml:space="preserve">        Session sesion = factory.getCurrentSession();</tspan><tspan x="0" y="353" xml:space="preserve">        </tspan><tspan x="0" y="377" xml:space="preserve">        try {</tspan><tspan x="0" y="401" xml:space="preserve">             sesion.beginTransaction();</tspan><tspan x="0" y="425"></tspan><tspan x="0" y="449" xml:space="preserve">            //Consultar todos los usuarios de la tabla Usuarios</tspan><tspan x="0" y="473" xml:space="preserve">            List&lt;Usuario&gt; usuariosRegistrados =  sesion.createQuery(“from Usuario”).list();</tspan><tspan x="0" y="497" xml:space="preserve">            System.out.println(“\nUsuarios registrados”);</tspan><tspan x="0" y="521" xml:space="preserve">            for(Usuario u: usuariosRegistrados) {</tspan><tspan x="0" y="545" xml:space="preserve">                System.out.println(u);</tspan><tspan x="0" y="569" xml:space="preserve">            }           </tspan><tspan x="0" y="593" xml:space="preserve">            //Consultar todos los usuarios cuyo username es igual a Raul</tspan><tspan x="0" y="617" xml:space="preserve">            usuariosRegistrados =  sesion.createQuery(“from Usuario u where u.userName </tspan><tspan x="0" y="641">= ‘Raul’”).getResultList();</tspan><tspan x="0" y="665" xml:space="preserve">            System.out.println(“\nUsuarios registrados con username = Raul”);</tspan><tspan x="0" y="689" xml:space="preserve">            for(Usuario u: usuariosRegistrados) {</tspan><tspan x="0" y="713" xml:space="preserve">                System.out.println(u);</tspan><tspan x="0" y="737" xml:space="preserve">            }</tspan><tspan x="0" y="761" xml:space="preserve">            //Consultar todos los usuarios cuyo username es igual a Francisco o su </tspan><tspan x="0" y="785">password es 12345</tspan><tspan x="0" y="809" xml:space="preserve">            usuariosRegistrados =  sesion.createQuery(“from Usuario u where u.userName </tspan><tspan x="0" y="833">= ‘Francisco’ OR u.userPassword = ‘12345’”).getResultList();</tspan><tspan x="0" y="857" xml:space="preserve">            System.out.println(“\nUsuarios registrados con userName = Francisco o </tspan><tspan x="0" y="881">userPassword = 12345”);</tspan><tspan x="0" y="905" xml:space="preserve">            for(Usuario u: usuariosRegistrados) {</tspan><tspan x="0" y="929" xml:space="preserve">                System.out.println(u);</tspan><tspan x="0" y="953" xml:space="preserve">            }</tspan><tspan x="0" y="977" xml:space="preserve">            //Consultar todos los usuarios cuyo username inicia por la letra S</tspan><tspan x="0" y="1001" xml:space="preserve">            usuariosRegistrados =  sesion.createQuery(“from Usuario u where u.userName </tspan><tspan x="0" y="1025">LIKE ‘S%’”).getResultList();</tspan><tspan x="0" y="1049" xml:space="preserve">            System.out.println(“\nUsuarios registrados con userName que inicia con la </tspan><tspan x="0" y="1073">letra S”);</tspan><tspan x="0" y="1097" xml:space="preserve">            for(Usuario u: usuariosRegistrados) {</tspan><tspan x="0" y="1121" xml:space="preserve">                System.out.println(u);</tspan><tspan x="0" y="1145" xml:space="preserve">            }</tspan><tspan x="0" y="1169" xml:space="preserve">            </tspan><tspan x="0" y="1193" xml:space="preserve">             sesion.getTransaction().commit();</tspan><tspan x="0" y="1217" xml:space="preserve">            System.out.println(“Proceso finalizado”);</tspan><tspan x="0" y="1241" xml:space="preserve">            </tspan><tspan x="0" y="1265" xml:space="preserve">        }finally {</tspan><tspan x="0" y="1289" xml:space="preserve">            factory.close();</tspan><tspan x="0" y="1313" xml:space="preserve">        }</tspan><tspan x="0" y="1337" xml:space="preserve">    }</tspan><tspan x="0" y="1361">}</tspan><tspan x="0" y="1385"></tspan></text>
  </g>
</svg>
