<svg xmlns="http://www.w3.org/2000/svg" width="1130.992" height="886.462" viewBox="0 0 1130.992 886.462">
  <g id="Grupo_145675" data-name="Grupo 145675" transform="translate(-240 -3588)">
    <g id="Grupo_145674" data-name="Grupo 145674" transform="translate(-93.338 3387.043)">
      <path id="Trazado_183947" data-name="Trazado 183947" d="M333.763,184.776V960.051c0,13.482-2.715,26.455,7.227,26.455l1116.21-1.769c9.938,0,6.587-11.2,6.587-24.686V184.776Z" transform="translate(0 100.914)"/>
      <path id="Trazado_189260" data-name="Trazado 189260" d="M333.763,511.24H1462.893" fill="none" stroke="#fff" stroke-width="1"/>
      <path id="Trazado_189261" data-name="Trazado 189261" d="M333.763,511.24H1462.893" transform="translate(0 238)" fill="none" stroke="#fff" stroke-width="1"/>
      <path id="Trazado_189271" data-name="Trazado 189271" d="M8.728,0H1122.264c4.82,0,8.728.257,8.728.575v85.85c0,.317-3.908.575-8.728.575H8.728C3.908,87,0,86.742,0,86.425V.575C0,.257,3.908,0,8.728,0Z" transform="translate(333.338 200.958)" fill="#ffa726"/>
      <rect id="Rectángulo_42585" data-name="Rectángulo 42585" width="20.793" height="1057.799" rx="5.408" transform="translate(1427.733 237.288) rotate(90)" fill="#fff"/>
      <path id="Trazado_189272" data-name="Trazado 189272" d="M367.722,160.108a5.648,5.648,0,1,1-5.647-5.649A5.648,5.648,0,0,1,367.722,160.108Z" transform="translate(34.679 59.854)" fill="#fff"/>
      <path id="Trazado_189273" data-name="Trazado 189273" d="M367.722,160.108a5.648,5.648,0,1,1-5.647-5.649A5.648,5.648,0,0,1,367.722,160.108Z" transform="translate(12.132 59.854)" fill="#12263f"/>
      <path id="Trazado_189274" data-name="Trazado 189274" d="M377.538,160.108a5.649,5.649,0,1,1-5.649-5.649A5.65,5.65,0,0,1,377.538,160.108Z" transform="translate(47.413 59.854)" fill="#26a69a"/>
    </g>
    <text id="_DOCTYPE_hibernate-configuration_PUBLIC_-_Hibernate_Hibernate_Configuration_DTD_3.0_EN_http:_www.hibernate.org_dtd_hibernate-configuration-3.0.dtd_hibernate-configuration_session-factory_" data-name="&lt;!DOCTYPE hibernate-configuration PUBLIC
        “-//Hibernate/Hibernate Configuration DTD 3.0//EN”
        “http://www.hibernate.org/dtd/hibernate-configuration-3.0.dtd”&gt;

&lt;hibernate-configuration&gt;

    &lt;session-factory&gt;
" transform="translate(279 3704)" fill="#fff" font-size="16" font-family="Roboto-Bold, Roboto" font-weight="700"><tspan x="0" y="17">&lt;!</tspan><tspan y="17" fill="#1565c0">DOCTYPE hibernate-configuration</tspan><tspan y="17" xml:space="preserve"> PUBLIC</tspan><tspan x="0" y="41" xml:space="preserve">        “-//Hibernate/Hibernate Configuration DTD 3.0//EN”</tspan><tspan x="0" y="65" xml:space="preserve">        “http://www.hibernate.org/dtd/hibernate-configuration-3.0.dtd”&gt;</tspan><tspan x="0" y="89"></tspan><tspan x="0" y="113">&lt;</tspan><tspan y="113" fill="#1565c0">hibernate-configuration</tspan><tspan y="113">&gt;</tspan><tspan x="0" y="137"></tspan><tspan x="0" y="161" xml:space="preserve">    &lt;</tspan><tspan y="161" fill="#1565c0">session-factory</tspan><tspan y="161">&gt;</tspan><tspan x="0" y="185"></tspan></text>
    <text id="_Select_our_SQL_dialect_property_name_dialect_org.hibernate.dialect.MySQLDialect_property_Echo_the_SQL_to_stdout_property_name_show_sql_true_property_Set_the_current_session_context_p" data-name="&lt;!— Select our SQL dialect —&gt;
        &lt;property name=“dialect”&gt;org.hibernate.dialect.MySQLDialect&lt;/property&gt;

        &lt;!— Echo the SQL to stdout —&gt;
        &lt;property name=“show_sql”&gt;true&lt;/property&gt;

        &lt;!— Set the current session context —&gt;
        &lt;p" transform="translate(279 4156)" fill="#26a69a" font-size="16" font-family="Roboto-Bold, Roboto" font-weight="700"><tspan x="0" y="17">&lt;!— Select our SQL dialect —&gt;</tspan><tspan fill="#fff"><tspan x="0" y="41" xml:space="preserve">        &lt;</tspan><tspan y="41" fill="#1565c0">property</tspan><tspan y="41" xml:space="preserve" fill="#4dd0e1"> name</tspan><tspan y="41">=</tspan><tspan y="41" fill="#5d3b3b">“dialect”</tspan><tspan y="41">&gt;org.hibernate.dialect.MySQLDialect&lt;/</tspan><tspan y="41" fill="#039be5">property</tspan><tspan y="41">&gt;</tspan><tspan x="0" y="65"></tspan></tspan><tspan x="0" y="89" xml:space="preserve">        &lt;!— Echo the SQL to stdout —&gt;</tspan><tspan fill="#fff"><tspan x="0" y="113" xml:space="preserve">        &lt;</tspan><tspan y="113" fill="#1565c0">property</tspan><tspan y="113"> </tspan><tspan y="113" fill="#4dd0e1">name</tspan><tspan y="113">=</tspan><tspan y="113" fill="#5d3b3b">“show_sql”</tspan><tspan y="113">&gt;true&lt;/</tspan><tspan y="113" fill="#039be5">property</tspan><tspan y="113">&gt;</tspan><tspan x="0" y="137"></tspan></tspan><tspan x="0" y="161" xml:space="preserve">        &lt;!— Set the current session context —&gt;</tspan><tspan fill="#fff"><tspan x="0" y="185" xml:space="preserve">        &lt;</tspan><tspan y="185" fill="#1565c0">property </tspan><tspan y="185" fill="#4dd0e1">name</tspan><tspan y="185">=</tspan><tspan y="185" fill="#5d3b3b">“current_session_context_class”</tspan><tspan y="185">&gt;thread&lt;/</tspan><tspan y="185" fill="#039be5">property</tspan><tspan y="185">&gt;</tspan><tspan x="0" y="209"> </tspan><tspan x="0" y="233" xml:space="preserve">    &lt;/</tspan><tspan y="233" fill="#1565c0">session-factory</tspan><tspan y="233">&gt;</tspan><tspan x="0" y="257"></tspan><tspan x="0" y="281">&lt;/</tspan><tspan y="281" fill="#1565c0">hibernate-configuration</tspan><tspan y="281">&gt;</tspan><tspan x="0" y="305"></tspan></tspan></text>
    <rect id="Rectángulo_42502" data-name="Rectángulo 42502" width="569" height="21" transform="translate(556 3965)" fill="#ffca28"/>
    <rect id="Rectángulo_42503" data-name="Rectángulo 42503" width="31" height="19" transform="translate(608 3991)" fill="#ffca28"/>
    <rect id="Rectángulo_42504" data-name="Rectángulo 42504" width="46" height="19" transform="translate(608 4015)" fill="#ffca28"/>
    <text id="_JDBC_Database_connection_settings_property_name_connection.driver_class_com.mysql.cj.jdbc.Driver_property_property_name_connection.url_jdbc:mysql:_localhost:3306_prueba_useSSL_false_amp_serverTimezone_UTC_property_" data-name="&lt;!— JDBC Database connection settings —&gt;
        &lt;property name=“connection.driver_class”&gt;com.mysql.cj.jdbc.Driver&lt;/property&gt;
        &lt;property name=“connection.url”&gt;jdbc:mysql://localhost:3306/prueba?useSSL=false&amp;amp;serverTimezone=UTC&lt;/property&gt;
        " transform="translate(279 3918)" fill="#26a69a" font-size="16" font-family="Roboto-Bold, Roboto" font-weight="700"><tspan x="0" y="17">&lt;!— JDBC Database connection settings —&gt;</tspan><tspan fill="#fff"><tspan x="0" y="41" xml:space="preserve">        &lt;</tspan><tspan y="41" fill="#1565c0">property</tspan><tspan y="41"> </tspan><tspan y="41" fill="#4dd0e1">name</tspan><tspan y="41">=</tspan><tspan y="41" fill="#5d3b3b">“connection.driver_class”</tspan><tspan y="41">&gt;com.mysql.cj.jdbc.Driver&lt;/</tspan><tspan y="41" fill="#039be5">property</tspan><tspan y="41">&gt;</tspan><tspan x="0" y="65" xml:space="preserve">        &lt;</tspan><tspan y="65" fill="#1565c0">property</tspan><tspan y="65"> </tspan><tspan y="65" fill="#4dd0e1">name</tspan><tspan y="65">=</tspan><tspan y="65" fill="#5d3b3b">“connection.url”</tspan><tspan y="65">&gt;</tspan><tspan y="65" fill="red">jdbc:mysql://localhost:3306/prueba?useSSL=false&amp;amp;serverTimezone=UTC</tspan><tspan y="65">&lt;/</tspan><tspan y="65" fill="#039be5">property</tspan><tspan y="65">&gt;</tspan><tspan x="0" y="89" xml:space="preserve">        &lt;</tspan><tspan y="89" fill="#1565c0">property</tspan><tspan y="89"> </tspan><tspan y="89" fill="#4dd0e1">name</tspan><tspan y="89">=</tspan><tspan y="89" fill="#5d3b3b">“connection.username”</tspan><tspan y="89">&gt;</tspan><tspan y="89" fill="red">root</tspan><tspan y="89">&lt;/</tspan><tspan y="89" fill="#039be5">property</tspan><tspan y="89">&gt;</tspan><tspan x="0" y="113" xml:space="preserve">        &lt;</tspan><tspan y="113" fill="#1565c0">property</tspan><tspan y="113"> </tspan><tspan y="113" fill="#4dd0e1">name</tspan><tspan y="113">=</tspan><tspan y="113" fill="#5d3b3b">“connection.password”</tspan><tspan y="113">&gt;</tspan><tspan y="113" fill="red">12345</tspan><tspan y="113">&lt;/</tspan><tspan y="113" fill="#039be5">property</tspan><tspan y="113">&gt;</tspan><tspan x="0" y="137"></tspan><tspan x="0" y="161" xml:space="preserve">      </tspan><tspan y="161" xml:space="preserve" fill="#26a69a">  &lt;!— JDBC connection pool settings … using built-in test pool —&gt;</tspan><tspan x="0" y="185" xml:space="preserve">        &lt;</tspan><tspan y="185" fill="#1565c0">property</tspan><tspan y="185"> </tspan><tspan y="185" fill="#4dd0e1">name</tspan><tspan y="185">=</tspan><tspan y="185" fill="#5d3b3b">“connection.pool_size”</tspan><tspan y="185">&gt;1&lt;/</tspan><tspan y="185" fill="#039be5">property</tspan><tspan y="185">&gt;</tspan><tspan x="0" y="209"></tspan></tspan></text>
  </g>
</svg>
