<svg xmlns="http://www.w3.org/2000/svg" xmlns:xlink="http://www.w3.org/1999/xlink" width="1041.371" height="254.13" viewBox="0 0 1041.371 254.13">
  <defs>
    <filter id="Rectángulo_26332" x="0" y="25.846" width="254.379" height="228.283" filterUnits="userSpaceOnUse">
      <feOffset dx="4" dy="6" input="SourceAlpha"/>
      <feGaussianBlur stdDeviation="5" result="blur"/>
      <feFlood flood-opacity="0.161"/>
      <feComposite operator="in" in2="blur"/>
      <feComposite in="SourceGraphic"/>
    </filter>
    <radialGradient id="radial-gradient" cx="0.076" cy="0.019" r="1.465" gradientTransform="translate(0.001)" gradientUnits="objectBoundingBox">
      <stop offset="0" stop-color="#f6f6f7"/>
      <stop offset="0.477" stop-color="#f9f9fa"/>
      <stop offset="0.715" stop-color="#fff"/>
    </radialGradient>
    <filter id="Rectángulo_26332-2" x="530.871" y="25.847" width="254.379" height="228.283" filterUnits="userSpaceOnUse">
      <feOffset dx="4" dy="6" input="SourceAlpha"/>
      <feGaussianBlur stdDeviation="5" result="blur-2"/>
      <feFlood flood-opacity="0.161"/>
      <feComposite operator="in" in2="blur-2"/>
      <feComposite in="SourceGraphic"/>
    </filter>
    <filter id="Rectángulo_26332-3" x="274.75" y="25.847" width="254.379" height="228.283" filterUnits="userSpaceOnUse">
      <feOffset dx="4" dy="6" input="SourceAlpha"/>
      <feGaussianBlur stdDeviation="5" result="blur-3"/>
      <feFlood flood-opacity="0.161"/>
      <feComposite operator="in" in2="blur-3"/>
      <feComposite in="SourceGraphic"/>
    </filter>
    <filter id="Rectángulo_26332-4" x="786.991" y="25.847" width="254.379" height="228.283" filterUnits="userSpaceOnUse">
      <feOffset dx="4" dy="6" input="SourceAlpha"/>
      <feGaussianBlur stdDeviation="5" result="blur-4"/>
      <feFlood flood-opacity="0.161"/>
      <feComposite operator="in" in2="blur-4"/>
      <feComposite in="SourceGraphic"/>
    </filter>
  </defs>
  <g id="Grupo_146118" data-name="Grupo 146118" transform="translate(-274 -9224.043)">
    <g id="Grupo_28455" data-name="Grupo 28455" transform="translate(285 9258.889)">
      <g transform="matrix(1, 0, 0, 1, -11, -34.85)" filter="url(#Rectángulo_26332)">
        <rect id="Rectángulo_26332-5" data-name="Rectángulo 26332" width="224.379" height="198.283" rx="8" transform="translate(11 34.85)" fill="#fff"/>
      </g>
      <path id="Trazado_40003" data-name="Trazado 40003" d="M-925.653,311.778h-44.125a8.886,8.886,0,0,0-8.886,8.886h61.9A8.886,8.886,0,0,0-925.653,311.778Z" transform="translate(1060.18 -122.738)" fill="#ffa726"/>
      <text id="Iniciar_una_transacción_por_medio_del_método_beginTransaction_" data-name="Iniciar una transacción por medio del método beginTransaction()" transform="translate(15.127 68.07)" fill="#00223d" font-size="16" font-family="Roboto-Regular, Roboto"><tspan x="3.019" y="17">Iniciar una transacción por </tspan><tspan x="32.972" y="37">medio del método </tspan><tspan x="30.233" y="57">beginTransaction()</tspan></text>
    </g>
    <g id="Grupo_49901" data-name="Grupo 49901" transform="translate(353.521 9224.043)">
      <g id="Grupo_18423" data-name="Grupo 18423" transform="translate(0 0)">
        <g id="Grupo_18421" data-name="Grupo 18421">
          <g id="Grupo_18420" data-name="Grupo 18420">
            <g id="Grupo_18419" data-name="Grupo 18419">
              <path id="Trazado_40936" data-name="Trazado 40936" d="M281.962,2189.389a43.669,43.669,0,1,1-43.669-43.668A43.669,43.669,0,0,1,281.962,2189.389Z" transform="translate(-194.623 -2145.721)" fill="#fff"/>
            </g>
          </g>
        </g>
        <path id="Trazado_40937" data-name="Trazado 40937" d="M281.7,2189.1a43.669,43.669,0,1,0-43.669,43.67A43.5,43.5,0,0,0,281.7,2189.1Z" transform="translate(-194.361 -2145.436)" fill="url(#radial-gradient)"/>
        <path id="Trazado_40938" data-name="Trazado 40938" d="M269.1,2186.859a33.332,33.332,0,1,0-33.333,33.333A33.209,33.209,0,0,0,269.1,2186.859Z" transform="translate(-191.968 -2143.046)" fill="none" stroke="#ffa726" stroke-miterlimit="10" stroke-width="4"/>
        <g id="Grupo_18422" data-name="Grupo 18422" transform="translate(7.736 24.517)">
          <path id="Trazado_40939" data-name="Trazado 40939" d="M275.732,2164.488a43.675,43.675,0,0,1-75.187,43.488,43.536,43.536,0,0,0,75.187-43.488Z" transform="translate(-200.545 -2164.488)" fill="#eceef0"/>
        </g>
      </g>
      <g id="Grupo_145706" data-name="Grupo 145706" transform="translate(26.74 23.559)">
        <g id="Grupo_26538" data-name="Grupo 26538" transform="translate(0 0)">
          <g id="Grupo_26537" data-name="Grupo 26537">
            <g id="Grupo_26525" data-name="Grupo 26525">
              <g id="Grupo_26524" data-name="Grupo 26524">
                <path id="Trazado_67369" data-name="Trazado 67369" d="M2150.625,1909.814h-24.2a.376.376,0,0,1-.376-.376v-31.145a.376.376,0,0,1,.376-.376h24.2a.376.376,0,0,1,.376.376v31.145A.376.376,0,0,1,2150.625,1909.814Zm-23.823-.751h23.448v-30.394H2126.8Z" transform="translate(-2126.05 -1877.918)" fill="#00223d"/>
              </g>
            </g>
            <g id="Grupo_26534" data-name="Grupo 26534" transform="translate(3.645 4.494)">
              <g id="Grupo_26526" data-name="Grupo 26526" transform="translate(10.249)">
                <path id="Trazado_67370" data-name="Trazado 67370" d="M2210.5,1903.814h-6.335a.376.376,0,1,1,0-.751h6.335a.376.376,0,0,1,0,.751Z" transform="translate(-2203.794 -1903.063)" fill="#00223d"/>
              </g>
              <g id="Grupo_26527" data-name="Grupo 26527" transform="translate(10.249 3.064)">
                <path id="Trazado_67371" data-name="Trazado 67371" d="M2210.5,1920.955h-6.335a.376.376,0,1,1,0-.751h6.335a.376.376,0,0,1,0,.751Z" transform="translate(-2203.794 -1920.204)" fill="#00223d"/>
              </g>
              <g id="Grupo_26528" data-name="Grupo 26528" transform="translate(10.249 6.127)">
                <path id="Trazado_67372" data-name="Trazado 67372" d="M2210.5,1938.1h-6.335a.376.376,0,1,1,0-.751h6.335a.376.376,0,0,1,0,.751Z" transform="translate(-2203.794 -1937.344)" fill="#00223d"/>
              </g>
              <g id="Grupo_26529" data-name="Grupo 26529" transform="translate(0 9.157)">
                <path id="Trazado_67373" data-name="Trazado 67373" d="M2163.131,1955.047h-16.308a.376.376,0,1,1,0-.751h16.308a.376.376,0,1,1,0,.751Z" transform="translate(-2146.447 -1954.296)" fill="#00223d"/>
              </g>
              <g id="Grupo_26530" data-name="Grupo 26530" transform="translate(0.051 12.548)">
                <path id="Trazado_67374" data-name="Trazado 67374" d="M2163.641,1974.022h-16.533a.376.376,0,1,1,0-.751h16.533a.376.376,0,0,1,0,.751Z" transform="translate(-2146.732 -1973.271)" fill="#00223d"/>
              </g>
              <g id="Grupo_26531" data-name="Grupo 26531" transform="translate(0.051 15.611)">
                <path id="Trazado_67375" data-name="Trazado 67375" d="M2163.641,1991.162h-16.533a.376.376,0,1,1,0-.751h16.533a.376.376,0,0,1,0,.751Z" transform="translate(-2146.732 -1990.411)" fill="#00223d"/>
              </g>
              <g id="Grupo_26532" data-name="Grupo 26532" transform="translate(0.051 18.675)">
                <path id="Trazado_67376" data-name="Trazado 67376" d="M2163.641,2008.3h-16.533a.376.376,0,1,1,0-.751h16.533a.376.376,0,0,1,0,.751Z" transform="translate(-2146.732 -2007.552)" fill="#00223d"/>
              </g>
              <g id="Grupo_26533" data-name="Grupo 26533" transform="translate(0.051 21.738)">
                <path id="Trazado_67377" data-name="Trazado 67377" d="M2157.946,2025.444h-10.838a.376.376,0,0,1,0-.751h10.838a.376.376,0,0,1,0,.751Z" transform="translate(-2146.732 -2024.692)" fill="#00223d"/>
              </g>
            </g>
            <g id="Grupo_26536" data-name="Grupo 26536" transform="translate(3.461 2.681)">
              <g id="Grupo_26535" data-name="Grupo 26535">
                <path id="Trazado_67378" data-name="Trazado 67378" d="M2150.47,1901.69l-.688,2.3h-2.265l2.953-8.975h2.867l3,8.975h-2.351l-.746-2.3Zm2.451-1.518-.6-1.9c-.172-.533-.344-1.2-.488-1.731h-.028c-.144.532-.287,1.212-.444,1.731l-.573,1.9Z" transform="translate(-2147.142 -1894.643)" fill="none"/>
                <path id="Trazado_67379" data-name="Trazado 67379" d="M2154.607,1902.644h-2.351a.376.376,0,0,1-.358-.26l-.661-2.044h-2.213l-.608,2.035a.375.375,0,0,1-.359.268h-2.265a.376.376,0,0,1-.357-.493l2.953-8.975a.375.375,0,0,1,.357-.258h2.867a.377.377,0,0,1,.357.257l3,8.975a.375.375,0,0,1-.356.495Zm-2.078-.751h1.556l-2.745-8.224h-2.324l-2.706,8.224h1.466l.607-2.036a.376.376,0,0,1,.36-.268h2.766a.376.376,0,0,1,.357.26Zm-1.334-3.071h-2.135a.376.376,0,0,1-.36-.484l.573-1.9c.091-.3.179-.666.265-1.018.059-.245.117-.486.176-.7a.375.375,0,0,1,.363-.278h.028a.375.375,0,0,1,.363.278l.071.264c.126.474.27,1.01.412,1.449l.6,1.906a.375.375,0,0,1-.358.489Zm-1.63-.751h1.118l-.448-1.415c-.042-.132-.086-.272-.127-.416-.038.143-.076.281-.115.411Z" transform="translate(-2145.416 -1892.917)" fill="#00223d"/>
              </g>
            </g>
          </g>
        </g>
        <g id="Grupo_26552" data-name="Grupo 26552" transform="translate(8.489 15.518)">
          <g id="Grupo_26546" data-name="Grupo 26546" transform="translate(13.753 11.475)">
            <g id="Grupo_26539" data-name="Grupo 26539" transform="translate(2.391 4.561)">
              <path id="Trazado_67382" data-name="Trazado 67382" d="M2271.549,2062.907a1.553,1.553,0,0,1-.565-.106,1.545,1.545,0,0,1-.988-1.431,1.561,1.561,0,0,1-1.054-.027,1.543,1.543,0,0,1-.988-1.43,1.56,1.56,0,0,1-1.055-.027,1.544,1.544,0,0,1-.988-1.431,1.561,1.561,0,0,1-1.055-.027,1.541,1.541,0,0,1-.878-2.007l.682-1.714a.376.376,0,0,1,.7.278l-.682,1.714a.782.782,0,0,0,.01.6.791.791,0,0,0,.443.424.812.812,0,0,0,1.048-.453l.192-.483a.376.376,0,0,1,.649-.088l.056.074a.375.375,0,0,1,.05.365l-.4,1.014a.78.78,0,0,0,.009.6.79.79,0,0,0,.443.424.811.811,0,0,0,1.046-.452l.3-.756a.375.375,0,0,1,.609-.132l.062.059a.375.375,0,0,1,.089.41l-.517,1.3a.78.78,0,0,0,.009.6.792.792,0,0,0,.443.424.813.813,0,0,0,1.047-.453l.458-1.152a.376.376,0,0,1,.545-.182l.068.041a.377.377,0,0,1,.153.46l-.682,1.715a.779.779,0,0,0,.009.6.792.792,0,0,0,.443.424.812.812,0,0,0,1.047-.452l.35-.879a.376.376,0,1,1,.7.278l-.35.879A1.564,1.564,0,0,1,2271.549,2062.907Z" transform="translate(-2263.868 -2054.47)" fill="#00223d"/>
            </g>
            <g id="Grupo_26540" data-name="Grupo 26540" transform="translate(1.542 1.055)">
              <path id="Trazado_67383" data-name="Trazado 67383" d="M2264.135,2041.153l-2.352-1.678a1.336,1.336,0,0,1-.305-1.877l.066-.091a1.366,1.366,0,0,1,1.895-.308l5.5,3.925Z" transform="translate(-2260.845 -2036.571)" fill="#fff"/>
              <path id="Trazado_67384" data-name="Trazado 67384" d="M2262.408,2039.808a.376.376,0,0,1-.218-.07l-2.352-1.679a1.712,1.712,0,0,1-.391-2.4l.064-.09a1.745,1.745,0,0,1,2.418-.395l5.5,3.925a.376.376,0,1,1-.436.612l-5.5-3.925a.991.991,0,0,0-1.373.223l-.065.09a.961.961,0,0,0,.218,1.352l2.352,1.679a.376.376,0,0,1-.218.682Z" transform="translate(-2259.118 -2034.85)" fill="#00223d"/>
            </g>
            <g id="Grupo_26541" data-name="Grupo 26541" transform="translate(4.421 3.985)">
              <path id="Trazado_67385" data-name="Trazado 67385" d="M2283.365,2058.9l-5.177-2.643a1.528,1.528,0,0,1-.691-2.062,1.56,1.56,0,0,1,2.082-.691l7.208,3.084Z" transform="translate(-2276.956 -2052.969)" fill="#fff"/>
              <path id="Trazado_67386" data-name="Trazado 67386" d="M2281.635,2057.555a.376.376,0,0,1-.17-.042l-5.177-2.644a1.9,1.9,0,0,1-.855-2.566,1.94,1.94,0,0,1,2.583-.858l7.19,3.075a.376.376,0,1,1-.3.691l-7.209-3.084a1.192,1.192,0,0,0-1.6.515,1.153,1.153,0,0,0,.522,1.556l5.181,2.646a.376.376,0,0,1-.172.711Z" transform="translate(-2275.227 -2051.246)" fill="#00223d"/>
            </g>
            <g id="Grupo_26542" data-name="Grupo 26542" transform="translate(5.05 1.792)">
              <path id="Trazado_67387" data-name="Trazado 67387" d="M2293.255,2044.268a.375.375,0,0,1-.263-.108,23.506,23.506,0,0,0-4.9-3.681,4,4,0,0,0-1.208-.434,20.351,20.351,0,0,0-7.675.107.376.376,0,1,1-.179-.729,20.749,20.749,0,0,1,7.992-.115,4.77,4.77,0,0,1,1.434.516,24.266,24.266,0,0,1,5.057,3.8.376.376,0,0,1-.263.644Z" transform="translate(-2278.749 -2038.975)" fill="#00223d"/>
            </g>
            <g id="Grupo_26543" data-name="Grupo 26543" transform="translate(10.441 9.463)">
              <path id="Trazado_67388" data-name="Trazado 67388" d="M2314.384,2085.663h-.031a7.725,7.725,0,0,1-5.377-3.178.376.376,0,1,1,.623-.419,7.091,7.091,0,0,0,4.814,2.849.376.376,0,0,1-.029.75Z" transform="translate(-2308.912 -2081.898)" fill="#00223d"/>
            </g>
            <g id="Grupo_26544" data-name="Grupo 26544" transform="translate(0 1.468)">
              <path id="Trazado_67389" data-name="Trazado 67389" d="M2252.166,2038.841a.375.375,0,0,1-.218-.07l-1.3-.926a.376.376,0,0,1,.436-.612l1.3.926a.376.376,0,0,1-.219.681Z" transform="translate(-2250.493 -2037.164)" fill="#00223d"/>
            </g>
            <g id="Grupo_26545" data-name="Grupo 26545" transform="translate(1.068)">
              <path id="Trazado_67390" data-name="Trazado 67390" d="M2258.142,2030.627a.374.374,0,0,1-.218-.07l-1.3-.926a.376.376,0,1,1,.437-.612l1.3.926a.376.376,0,0,1-.218.682Z" transform="translate(-2256.469 -2028.95)" fill="#00223d"/>
            </g>
          </g>
          <g id="Grupo_26547" data-name="Grupo 26547">
            <path id="Trazado_67391" data-name="Trazado 67391" d="M2189.143,1969.119a7.784,7.784,0,0,1,0,11.079,7.957,7.957,0,0,1-11.18,0,7.784,7.784,0,0,1,0-11.079A7.957,7.957,0,0,1,2189.143,1969.119Z" transform="translate(-2175.272 -1966.453)" fill="#fff"/>
            <path id="Trazado_67392" data-name="Trazado 67392" d="M2181.826,1981.156a8.29,8.29,0,0,1-5.854-2.4,8.159,8.159,0,0,1,0-11.613,8.342,8.342,0,0,1,11.709,0,8.16,8.16,0,0,1,0,11.613A8.3,8.3,0,0,1,2181.826,1981.156Zm0-15.66a7.541,7.541,0,0,0-5.325,2.182,7.407,7.407,0,0,0,0,10.545,7.589,7.589,0,0,0,10.651,0,7.408,7.408,0,0,0,0-10.545A7.544,7.544,0,0,0,2181.825,1965.5Z" transform="translate(-2173.544 -1964.745)" fill="#00223d"/>
          </g>
          <g id="Grupo_26548" data-name="Grupo 26548" transform="translate(1.968 1.949)">
            <path id="Trazado_67393" data-name="Trazado 67393" d="M2196.8,1979.46a5.847,5.847,0,0,1,0,8.321,5.976,5.976,0,0,1-8.4,0,5.846,5.846,0,0,1,0-8.321A5.976,5.976,0,0,1,2196.8,1979.46Z" transform="translate(-2186.284 -1977.364)" fill="none"/>
            <path id="Trazado_67394" data-name="Trazado 67394" d="M2190.87,1988.164a6.318,6.318,0,0,1-4.462-1.829,6.221,6.221,0,0,1,0-8.854,6.358,6.358,0,0,1,8.925,0,6.222,6.222,0,0,1,0,8.854A6.323,6.323,0,0,1,2190.87,1988.164Zm0-11.762a5.57,5.57,0,0,0-3.933,1.612,5.471,5.471,0,0,0,0,7.787,5.6,5.6,0,0,0,7.867,0,5.47,5.47,0,0,0,0-7.787A5.571,5.571,0,0,0,2190.87,1976.4Z" transform="translate(-2184.558 -1975.652)" fill="#00223d"/>
          </g>
          <g id="Grupo_26549" data-name="Grupo 26549" transform="translate(1.933 7.738)">
            <path id="Trazado_67395" data-name="Trazado 67395" d="M2193.253,2008.793h-8.517a.376.376,0,0,1,0-.752h8.517a.376.376,0,0,1,0,.752Z" transform="translate(-2184.361 -2008.041)" fill="#00223d"/>
          </g>
          <g id="Grupo_26550" data-name="Grupo 26550" transform="translate(2.818 4.972)">
            <path id="Trazado_67396" data-name="Trazado 67396" d="M2195.963,1993.317h-6.275a.376.376,0,0,1,0-.751h6.275a.376.376,0,0,1,0,.751Z" transform="translate(-2189.313 -1992.566)" fill="#00223d"/>
          </g>
          <g id="Grupo_26551" data-name="Grupo 26551" transform="translate(2.682 10.504)">
            <path id="Trazado_67397" data-name="Trazado 67397" d="M2196.354,2024.269h-7.429a.376.376,0,0,1,0-.751h7.429a.376.376,0,1,1,0,.751Z" transform="translate(-2188.55 -2023.517)" fill="#00223d"/>
          </g>
        </g>
      </g>
    </g>
    <g id="Grupo_53945" data-name="Grupo 53945" transform="translate(815.871 9224.043)">
      <g id="Grupo_28455-2" data-name="Grupo 28455" transform="translate(0 34.846)">
        <g transform="matrix(1, 0, 0, 1, -541.87, -34.85)" filter="url(#Rectángulo_26332-2)">
          <rect id="Rectángulo_26332-6" data-name="Rectángulo 26332" width="224.379" height="198.283" rx="8" transform="translate(541.87 34.85)" fill="#fff"/>
        </g>
        <path id="Trazado_40003-2" data-name="Trazado 40003" d="M-925.653,311.778h-44.125a8.886,8.886,0,0,0-8.886,8.886h61.9A8.886,8.886,0,0,0-925.653,311.778Z" transform="translate(1060.18 -122.738)" fill="#ffa726"/>
        <text id="Invocar_el_método_save_de_la_sesión_enviando_como_parámetro_el_objeto_de_la_clase_entidad." data-name="Invocar el método save() de la sesión enviando como parámetro el objeto de la clase entidad." transform="translate(15.127 68.07)" fill="#00223d" font-size="16" font-family="Roboto-Regular, Roboto"><tspan x="9.507" y="17">Invocar el método save() </tspan><tspan x="20.612" y="37">de la sesión enviando </tspan><tspan x="5.616" y="57">como parámetro el objeto </tspan><tspan x="28.796" y="77">de la clase entidad.</tspan></text>
      </g>
      <g id="Grupo_49901-2" data-name="Grupo 49901" transform="translate(68.52 0)">
        <g id="Grupo_18423-2" data-name="Grupo 18423" transform="translate(0 0)">
          <g id="Grupo_18421-2" data-name="Grupo 18421">
            <g id="Grupo_18420-2" data-name="Grupo 18420">
              <g id="Grupo_18419-2" data-name="Grupo 18419">
                <path id="Trazado_40936-2" data-name="Trazado 40936" d="M281.962,2189.389a43.669,43.669,0,1,1-43.669-43.668A43.669,43.669,0,0,1,281.962,2189.389Z" transform="translate(-194.623 -2145.721)" fill="#fff"/>
              </g>
            </g>
          </g>
          <path id="Trazado_40937-2" data-name="Trazado 40937" d="M281.7,2189.1a43.669,43.669,0,1,0-43.669,43.67A43.5,43.5,0,0,0,281.7,2189.1Z" transform="translate(-194.361 -2145.436)" fill="url(#radial-gradient)"/>
          <path id="Trazado_40938-2" data-name="Trazado 40938" d="M269.1,2186.859a33.332,33.332,0,1,0-33.333,33.333A33.209,33.209,0,0,0,269.1,2186.859Z" transform="translate(-191.968 -2143.046)" fill="none" stroke="#ffa726" stroke-miterlimit="10" stroke-width="4"/>
          <g id="Grupo_18422-2" data-name="Grupo 18422" transform="translate(7.736 24.517)">
            <path id="Trazado_40939-2" data-name="Trazado 40939" d="M275.732,2164.488a43.675,43.675,0,0,1-75.187,43.488,43.536,43.536,0,0,0,75.187-43.488Z" transform="translate(-200.545 -2164.488)" fill="#eceef0"/>
          </g>
        </g>
        <g id="Grupo_42276" data-name="Grupo 42276" transform="translate(-321.255 2.493)">
          <path id="Trazado_40970" data-name="Trazado 40970" d="M349.216,33.759a3.55,3.55,0,1,1,3.55-3.55A3.554,3.554,0,0,1,349.216,33.759Zm0-5.716a2.165,2.165,0,1,0,2.164,2.165A2.168,2.168,0,0,0,349.216,28.043Z" transform="translate(-0.634 -0.38)" fill="#00223d"/>
          <path id="Trazado_40971" data-name="Trazado 40971" d="M345.2,49.375a.692.692,0,0,1-.693-.693V41.358a.693.693,0,0,1,1.385,0v7.325A.692.692,0,0,1,345.2,49.375Z" transform="translate(-0.464 -2.441)" fill="#00223d"/>
          <path id="Trazado_40972" data-name="Trazado 40972" d="M352.425,64.843h-2.891a.692.692,0,0,1-.693-.693V52.294a.258.258,0,0,0-.092-.2.262.262,0,0,0-.217-.058.3.3,0,0,0-.211.307V64.15a.693.693,0,0,1-.693.693h-2.892a.692.692,0,0,1-.693-.693V49.9a2.037,2.037,0,0,1-2.688-1.979V40.56a4.645,4.645,0,0,1,4.117-4.616,26.807,26.807,0,0,1,3.115-.1.693.693,0,0,1-.007,1.386,25.15,25.15,0,0,0-2.951.094,3.259,3.259,0,0,0-2.889,3.239v7.363a.685.685,0,0,0,.515.687.653.653,0,0,0,.787-.638.693.693,0,1,1,1.385,0V63.458h1.507V52.344a1.686,1.686,0,0,1,1.374-1.674,1.647,1.647,0,0,1,1.916,1.624V63.458h1.506V47.972a.693.693,0,1,1,1.385,0V64.15A.692.692,0,0,1,352.425,64.843Z" transform="translate(0 -1.731)" fill="#00223d"/>
          <path id="Trazado_40973" data-name="Trazado 40973" d="M349.484,47.874a.694.694,0,0,1-.617-.378l-1.3-2.546a.693.693,0,0,1-.072-.39l.41-3.8a.693.693,0,1,1,1.377.148l-.388,3.6.588,1.153.588-1.153-.385-3.572a.693.693,0,0,1,1.377-.148l.407,3.776a.694.694,0,0,1-.072.39L350.1,47.5A.691.691,0,0,1,349.484,47.874Z" transform="translate(-0.903 -2.363)" fill="#00223d"/>
          <path id="Trazado_40974" data-name="Trazado 40974" d="M352.889,51.622H345.2a.693.693,0,1,1,0-1.385h7.688a.693.693,0,1,1,0,1.385Z" transform="translate(-0.464 -3.849)" fill="#00223d"/>
          <path id="Trazado_40975" data-name="Trazado 40975" d="M353.552,48.666a.692.692,0,0,1-.693-.693V39.456a.693.693,0,0,1,.693-.693h7.829a.768.768,0,1,0,0-1.536H349.709a.693.693,0,0,1,0-1.386h11.673a2.153,2.153,0,1,1,0,4.307h-7.137v7.824A.692.692,0,0,1,353.552,48.666Z" transform="translate(-1.127 -1.731)" fill="#00223d"/>
          <path id="Trazado_40976" data-name="Trazado 40976" d="M390.949,48.031H362.16a.692.692,0,0,1-.693-.693V37.725a.692.692,0,0,1,.693-.693h1.054a.768.768,0,1,0,0-1.536H362.16a.693.693,0,0,1-.693-.693V24.77a.693.693,0,0,1,.693-.693h28.79a.693.693,0,0,1,.693.693V47.339A.693.693,0,0,1,390.949,48.031Zm-28.1-1.385h27.4V25.463h-27.4v8.648h.362a2.153,2.153,0,0,1,0,4.307h-.362Z" transform="translate(-2.959)" fill="#00223d"/>
          <path id="Trazado_40977" data-name="Trazado 40977" d="M383.074,35.549a.683.683,0,0,1-.264-.053.693.693,0,0,1-.428-.64V27.428a.693.693,0,0,1,.693-.693,8.066,8.066,0,0,1,5.742,2.379.693.693,0,0,1,0,.98l-5.253,5.253A.69.69,0,0,1,383.074,35.549Zm.693-7.394v5.029l3.555-3.556A6.677,6.677,0,0,0,383.768,28.155Z" transform="translate(-6.037 -0.391)" fill="#00223d"/>
          <path id="Trazado_40978" data-name="Trazado 40978" d="M379.39,44.84a8.122,8.122,0,1,1,0-16.243.693.693,0,0,1,.693.693v7.143l5.05,5.051a.692.692,0,0,1,0,.979A8.065,8.065,0,0,1,379.39,44.84ZM378.7,30.018a6.737,6.737,0,1,0,4.941,11.93L378.9,37.209a.691.691,0,0,1-.2-.49Z" transform="translate(-4.401 -0.665)" fill="#00223d"/>
          <path id="Trazado_40979" data-name="Trazado 40979" d="M389.8,43.04a.692.692,0,0,1-.49-.2l-5.253-5.253a.693.693,0,0,1,0-.98l5.253-5.253a.693.693,0,0,1,.911-.061,7.378,7.378,0,0,1,2.448,5.8,8.07,8.07,0,0,1-2.379,5.742A.69.69,0,0,1,389.8,43.04ZM385.527,37.1l4.25,4.249a6.691,6.691,0,0,0,1.508-4.249,6.407,6.407,0,0,0-1.478-4.28Z" transform="translate(-6.254 -1.041)" fill="#00223d"/>
          <path id="Trazado_40980" data-name="Trazado 40980" d="M391.238,54.346H361.246a1.9,1.9,0,1,1,0-3.806h29.992a1.9,1.9,0,0,1,0,3.806Zm-29.992-2.421a.518.518,0,0,0,0,1.036h29.992a.518.518,0,0,0,0-1.036Z" transform="translate(-2.647 -3.894)" fill="#00223d"/>
        </g>
      </g>
    </g>
    <g id="Grupo_53943" data-name="Grupo 53943" transform="translate(559.75 9224.043)">
      <g id="Grupo_28455-3" data-name="Grupo 28455" transform="translate(0 34.846)">
        <g transform="matrix(1, 0, 0, 1, -285.75, -34.85)" filter="url(#Rectángulo_26332-3)">
          <rect id="Rectángulo_26332-7" data-name="Rectángulo 26332" width="224.379" height="198.283" rx="8" transform="translate(285.75 34.85)" fill="#fff"/>
        </g>
        <path id="Trazado_40003-3" data-name="Trazado 40003" d="M-925.653,311.778h-44.125a8.886,8.886,0,0,0-8.886,8.886h61.9A8.886,8.886,0,0,0-925.653,311.778Z" transform="translate(1060.18 -122.738)" fill="#1565c0"/>
        <text id="Ejecutar_la_lógica_necesaria_para_crear_un_objeto_de_la_clase_de_entidad_con_sus_correspondientes_valores." data-name="Ejecutar la lógica necesaria para crear un objeto de la clase de entidad con sus correspondientes valores." transform="translate(15.127 68.07)" fill="#00223d" font-size="16" font-family="Roboto-Regular, Roboto"><tspan x="0.085" y="17">Ejecutar la lógica necesaria </tspan><tspan x="7.311" y="37">para crear un objeto de la </tspan><tspan x="9.39" y="57">clase de entidad con sus </tspan><tspan x="5.409" y="77">correspondientes valores.</tspan></text>
      </g>
      <g id="Grupo_49901-3" data-name="Grupo 49901" transform="translate(68.52 0)">
        <g id="Grupo_18423-3" data-name="Grupo 18423" transform="translate(0 0)">
          <g id="Grupo_18421-3" data-name="Grupo 18421">
            <g id="Grupo_18420-3" data-name="Grupo 18420">
              <g id="Grupo_18419-3" data-name="Grupo 18419">
                <path id="Trazado_40936-3" data-name="Trazado 40936" d="M281.962,2189.389a43.669,43.669,0,1,1-43.669-43.668A43.669,43.669,0,0,1,281.962,2189.389Z" transform="translate(-194.623 -2145.721)" fill="#fff"/>
              </g>
            </g>
          </g>
          <path id="Trazado_40937-3" data-name="Trazado 40937" d="M281.7,2189.1a43.669,43.669,0,1,0-43.669,43.67A43.5,43.5,0,0,0,281.7,2189.1Z" transform="translate(-194.361 -2145.436)" fill="url(#radial-gradient)"/>
          <path id="Trazado_40938-3" data-name="Trazado 40938" d="M269.1,2186.859a33.332,33.332,0,1,0-33.333,33.333A33.209,33.209,0,0,0,269.1,2186.859Z" transform="translate(-191.968 -2143.046)" fill="none" stroke="#1565c0" stroke-miterlimit="10" stroke-width="4"/>
          <g id="Grupo_18422-3" data-name="Grupo 18422" transform="translate(7.736 24.517)">
            <path id="Trazado_40939-3" data-name="Trazado 40939" d="M275.732,2164.488a43.675,43.675,0,0,1-75.187,43.488,43.536,43.536,0,0,0,75.187-43.488Z" transform="translate(-200.545 -2164.488)" fill="#eceef0"/>
          </g>
        </g>
        <g id="JFsKjU.tif" transform="translate(-30.864 39.488)">
          <g id="Grupo_53947" data-name="Grupo 53947" transform="translate(56.604 -16.446)">
            <path id="Trazado_115819" data-name="Trazado 115819" d="M66.492,22.809c-.607-.5-.7-1.065-.193-1.449a1.266,1.266,0,0,1,.667-.222,4.026,4.026,0,0,0,3.822-3.451c.027-.175.052-.35.088-.6h-.544q-5.557,0-11.115,0a2.608,2.608,0,0,1-2.566-2.006,2.127,2.127,0,0,1-.047-.493q0-11.4,0-22.809a2.541,2.541,0,0,1,2.3-2.487c1.083-.053,2.171-.016,3.257-.017a.769.769,0,0,1,.161.039V-9.1c-.115.005-.236.016-.358.016-.92,0-1.84,0-2.759,0-.749,0-.959.2-.959.956q0,7.188,0,14.375,0,4.025,0,8.05c0,.1,0,.2,0,.307.025.627.244.847.875.849,1.661,0,3.322,0,4.982,0H88.867l-2.344-2.337a20.124,20.124,0,0,1-2.529.853,8.839,8.839,0,0,1-8.471-2.684,8.537,8.537,0,0,1-1.86-2.831.5.5,0,0,0-.551-.373c-3.424.013-6.848.009-10.272.01h-.49V6.461h1.612V6.033q0-7.9-.007-15.794a1.126,1.126,0,0,1,.348-.853c1.854-1.851,3.7-3.709,5.565-5.547a1.055,1.055,0,0,1,.672-.273q8.509-.022,17.017-.011c.639,0,.931.3.931.94q0,6.8.008,13.609a.847.847,0,0,0,.188.538A8.941,8.941,0,0,1,90.211,9.278c-.024.045-.044.092-.05.1L94.19,13.42c.007-.122.02-.253.02-.384q0-10.561,0-21.122c0-.819-.191-1-1.026-1H90.136v-1.641h3.026a2.614,2.614,0,0,1,2.616,1.9.732.732,0,0,0,.075.128V16.676c-.051.128-.1.255-.152.384a2.461,2.461,0,0,1-3.267,1.47A4.029,4.029,0,0,1,91.011,17.4a.924.924,0,0,0-.736-.31c-2.413.01-4.826.006-7.239.007H81.627a.632.632,0,0,0-.029.144,4.031,4.031,0,0,0,3.929,3.9.882.882,0,0,1,.933.737c.083.437-.2.7-.5.94ZM86.829-14.775H71.322v.373q0,2.223,0,4.446a.776.776,0,0,1-.658.852c-.863.03-1.728.009-2.6.009v-1.638h1.585V-13.6c-1.336,1.339-2.62,2.617-3.888,3.912a.749.749,0,0,0-.145.484Q65.6-1.591,65.6,6.017c0,.134.015.269.023.407h7.434a9.077,9.077,0,0,1,.28-4.064H68.067V.727h.607c1.673,0,3.347-.005,5.02.009a.58.58,0,0,0,.537-.307c.462-.64.961-1.253,1.446-1.875.064-.082.136-.159.259-.3H68.065V-3.368h.447q4.752,0,9.5-.006a2.055,2.055,0,0,0,.74-.143,8.646,8.646,0,0,1,6.1-.225c.669.221,1.305.543,1.974.826ZM82.145-2.536a7.4,7.4,0,0,0-7.537,7.387A7.429,7.429,0,0,0,82,12.544a7.494,7.494,0,0,0,7.66-7.439A7.412,7.412,0,0,0,82.145-2.536ZM70.791,21.136h10.87a6.618,6.618,0,0,1-1.709-3.825c-.01-.082-.183-.208-.28-.208q-3.445-.019-6.891,0a.407.407,0,0,0-.284.248c-.079.266-.089.552-.15.825A6.275,6.275,0,0,1,70.791,21.136Zm19.634-6.631c.786.781,1.568,1.569,2.362,2.345a.813.813,0,0,0,1.141.008.829.829,0,0,0,.11-1.138c-.8-.825-1.618-1.626-2.412-2.418Zm-2.3-2.449,1.1,1.134L90.356,12.1l-1.13-1.14Z" transform="translate(-56.605 16.446)" fill="#12263f"/>
            <path id="Trazado_115821" data-name="Trazado 115821" d="M103.279,326.9v1.665c-1.124,0-2.23.016-3.334-.008a.73.73,0,0,1-.718-.719c-.022-1.107-.008-2.215-.008-3.355h1.609V326.9Z" transform="translate(-95.942 -298.299)" fill="#12263f"/>
            <path id="Trazado_115822" data-name="Trazado 115822" d="M173.821,356.316h1.61v1.617h-1.61Z" transform="translate(-164.818 -327.686)" fill="#12263f"/>
            <path id="Trazado_115823" data-name="Trazado 115823" d="M222.094,100.928v1.61H205.756v-1.61Z" transform="translate(-194.301 -91.913)" fill="#12263f"/>
            <path id="Trazado_115824" data-name="Trazado 115824" d="M337.114,190.224,336,189.065a5.891,5.891,0,0,1,8.128-.038l-1.153,1.151a4.125,4.125,0,0,0-2.913-1.222A4.2,4.2,0,0,0,337.114,190.224Z" transform="translate(-314.539 -171.762)" fill="#12263f"/>
          </g>
        </g>
      </g>
    </g>
    <g id="Grupo_53944" data-name="Grupo 53944" transform="translate(1071.991 9224.043)">
      <g id="Grupo_28455-4" data-name="Grupo 28455" transform="translate(0 34.846)">
        <g transform="matrix(1, 0, 0, 1, -797.99, -34.85)" filter="url(#Rectángulo_26332-4)">
          <rect id="Rectángulo_26332-8" data-name="Rectángulo 26332" width="224.379" height="198.283" rx="8" transform="translate(797.99 34.85)" fill="#fff"/>
        </g>
        <path id="Trazado_40003-4" data-name="Trazado 40003" d="M-925.653,311.778h-44.125a8.886,8.886,0,0,0-8.886,8.886h61.9A8.886,8.886,0,0,0-925.653,311.778Z" transform="translate(1060.18 -122.738)" fill="#1565c0"/>
        <text id="Confirmar_la_transacción_realizada_por_medio_del_método_getTransaction_.commit_" data-name="Confirmar la transacción realizada por medio del método getTransaction().commit()" transform="translate(15.127 68.07)" fill="#00223d" font-size="16" font-family="Roboto-Regular, Roboto"><tspan x="9.968" y="17">Confirmar la transacción </tspan><tspan x="14.296" y="37">realizada por medio del </tspan><tspan x="69.89" y="57">método </tspan><tspan x="3.515" y="77">getTransaction().commit()</tspan></text>
      </g>
      <g id="Grupo_49901-4" data-name="Grupo 49901" transform="translate(68.52 0)">
        <g id="Grupo_18423-4" data-name="Grupo 18423" transform="translate(0 0)">
          <g id="Grupo_18421-4" data-name="Grupo 18421">
            <g id="Grupo_18420-4" data-name="Grupo 18420">
              <g id="Grupo_18419-4" data-name="Grupo 18419">
                <path id="Trazado_40936-4" data-name="Trazado 40936" d="M281.962,2189.389a43.669,43.669,0,1,1-43.669-43.668A43.669,43.669,0,0,1,281.962,2189.389Z" transform="translate(-194.623 -2145.721)" fill="#fff"/>
              </g>
            </g>
          </g>
          <path id="Trazado_40937-4" data-name="Trazado 40937" d="M281.7,2189.1a43.669,43.669,0,1,0-43.669,43.67A43.5,43.5,0,0,0,281.7,2189.1Z" transform="translate(-194.361 -2145.436)" fill="url(#radial-gradient)"/>
          <path id="Trazado_40938-4" data-name="Trazado 40938" d="M269.1,2186.859a33.332,33.332,0,1,0-33.333,33.333A33.209,33.209,0,0,0,269.1,2186.859Z" transform="translate(-191.968 -2143.046)" fill="none" stroke="#1565c0" stroke-miterlimit="10" stroke-width="4"/>
          <g id="Grupo_18422-4" data-name="Grupo 18422" transform="translate(7.736 24.517)">
            <path id="Trazado_40939-4" data-name="Trazado 40939" d="M275.732,2164.488a43.675,43.675,0,0,1-75.187,43.488,43.536,43.536,0,0,0,75.187-43.488Z" transform="translate(-200.545 -2164.488)" fill="#eceef0"/>
          </g>
        </g>
        <g id="Grupo_145707" data-name="Grupo 145707" transform="translate(24.629 -73.969)">
          <path id="Trazado_115805" data-name="Trazado 115805" d="M7.963,137.45H1.049a1.54,1.54,0,0,1-.96-.96v-10.5a1.38,1.38,0,0,1,1.536-.971c.442.03.888.005,1.358.005v-.393q0-10.974,0-21.948a3.121,3.121,0,0,1,1.068-2.5,3.675,3.675,0,0,1,1.48-.7H36.707a3.649,3.649,0,0,1,1.6.783,3.484,3.484,0,0,1,.957,1.713v28.68a.276.276,0,0,0-.052.077,2.957,2.957,0,0,1-3.052,2.419H27.939c-1.771,0-3.542,0-5.312,0a.5.5,0,0,0-.336.095c-.311.349-.6.721-.921,1.118a1.62,1.62,0,0,1-.207,1.914,1.931,1.931,0,0,1-1.578.626q-3.984,0-7.968,0a3.293,3.293,0,0,1-.351-.017c-.8-.086-1.6-.176-2.438-.268A1.409,1.409,0,0,1,7.963,137.45Zm.889-11.575c.653-.331,1.268-.645,1.886-.955a11.321,11.321,0,0,0,5.189-4.939c.224-.434.4-.9.626-1.327a1.222,1.222,0,0,1,1.239-.735,1.641,1.641,0,0,1,1.434,1.159,7.077,7.077,0,0,1,.419,1.727,3.316,3.316,0,0,1-1.75,3.45,7.234,7.234,0,0,0-.659.32c-.182.123-.469.329-.45.461.04.275.359.266.606.266,1.024,0,2.049-.012,3.073,0a1.885,1.885,0,0,1,1.792,1.12,1.857,1.857,0,0,1-.08,1.638,1.86,1.86,0,0,1,1.462,1.675,1.81,1.81,0,0,1-1.446,1.942c.185.537.185.537.719.537H36.067c.139,0,.278,0,.416-.011a2.011,2.011,0,0,0,1.83-1.789c.015-.148.024-.3.024-.447q0-10.755,0-21.509v-.626H3.951v17.189h.368c.992,0,1.985.023,2.977-.008A1.4,1.4,0,0,1,8.852,125.875Zm6.549,10.1c1.419,0,2.838,0,4.257,0a1.424,1.424,0,0,0,.439-.064.751.751,0,0,0-.236-1.472c-.352-.007-.7,0-1.056,0-.372-.006-.6-.2-.586-.489s.235-.458.584-.46c.555,0,1.11,0,1.664,0a.943.943,0,0,0,1-.863.923.923,0,0,0-1-.927c-.427-.006-.853,0-1.28,0-.364,0-.565-.171-.558-.464s.194-.447.541-.448c.768,0,1.536,0,2.3,0a2.279,2.279,0,0,0,.57-.051.837.837,0,0,0,.651-.707.748.748,0,0,0-.376-.845,1.732,1.732,0,0,0-.755-.194c-.906-.022-1.813-.006-2.72-.008-.4,0-.633-.187-.626-.48s.229-.452.616-.453c.576,0,1.152,0,1.728,0a.911.911,0,0,0,.9-.725.86.86,0,0,0-.555-.969,1.47,1.47,0,0,0-.528-.092c-1.056-.008-2.112,0-3.169-.007a1.413,1.413,0,0,1-1.348-.9,1.32,1.32,0,0,1,.7-1.477,5.477,5.477,0,0,1,.632-.3,2.3,2.3,0,0,0,1.331-1.265,3.712,3.712,0,0,0-.227-3c-.115-.247-.33-.5-.608-.43-.175.043-.348.3-.429.5a12.153,12.153,0,0,1-5.9,6.3q-1.116.584-2.208,1.212a.508.508,0,0,0-.214.371c-.012,2.71-.008,5.42-.013,8.13,0,.185.051.269.24.292.78.1,1.557.262,2.339.292C12.8,136.011,14.1,135.975,15.4,135.976Zm13.8-33.862h0c-.224,0-.448-.008-.671,0a1,1,0,0,0-.98,1.011q-.008.607,0,1.215a1,1,0,0,0,1.024,1.035c.4.011.81.01,1.215,0a1,1,0,0,0,1.017-.983,12.6,12.6,0,0,0,0-1.311,1,1,0,0,0-1.027-.967C29.588,102.11,29.4,102.114,29.2,102.114Zm6.42,1.66c0-.213,0-.426,0-.64a.987.987,0,0,0-1.031-1.021c-.384,0-.767,0-1.151,0a1.01,1.01,0,0,0-1.074,1.054c-.01.394-.012.789,0,1.183a1.013,1.013,0,0,0,1.043,1.025c.384.008.768.007,1.151,0a1,1,0,0,0,1.061-1.059C35.626,104.137,35.624,103.955,35.624,103.774Zm-12.892-.04h.005c0,.224-.009.448,0,.671a.971.971,0,0,0,.953.966c.436.019.874.018,1.31,0a.943.943,0,0,0,.961-.92,9.979,9.979,0,0,0-.006-1.466.947.947,0,0,0-.973-.869q-.623-.012-1.246,0a.98.98,0,0,0-1,.981C22.725,103.308,22.732,103.521,22.732,103.734ZM6.108,134.493a1.255,1.255,0,0,0-1.238-1.271,1.271,1.271,0,0,0-1.285,1.264,1.29,1.29,0,0,0,1.278,1.279A1.269,1.269,0,0,0,6.108,134.493Z" transform="translate(0 0)" fill="#12263f"/>
          <path id="Trazado_115806" data-name="Trazado 115806" d="M574.65,101.984a3.485,3.485,0,0,0-.957-1.713,3.648,3.648,0,0,0-1.6-.783h2.561Z" transform="translate(-535.382 0)" fill="#12263f"/>
          <path id="Trazado_115813" data-name="Trazado 115813" d="M399.638,451.374a4.485,4.485,0,1,1-4.5,4.507A4.5,4.5,0,0,1,399.638,451.374Zm-.562,4.868c-.116-.136-.189-.227-.268-.313s-.161-.171-.248-.25a.469.469,0,0,0-.684-.023.454.454,0,0,0,.032.657q.41.426.841.833a.439.439,0,0,0,.679,0c.213-.193.41-.4.614-.608.445-.445.9-.883,1.33-1.339a.443.443,0,0,0-.228-.775.753.753,0,0,0-.491.224C400.13,455.151,399.63,455.677,399.076,456.242Z" transform="translate(-369.759 -329.36)" fill="#12263f"/>
          <path id="Trazado_115814" data-name="Trazado 115814" d="M147.973,302.215h-12.16a2.13,2.13,0,0,1-.32-.007.455.455,0,0,1-.007-.9,1.365,1.365,0,0,1,.223,0h24.544c.4,0,.592.154.584.465-.007.291-.2.446-.577.446Z" transform="translate(-126.372 -188.895)" fill="#12263f"/>
          <path id="Trazado_115815" data-name="Trazado 115815" d="M144.927,356.118h-9.18c-.064,0-.128,0-.192,0a.446.446,0,0,1-.482-.444.44.44,0,0,1,.451-.473c.1-.009.192-.007.288-.007h18.3c.5,0,.729.145.731.465s-.228.46-.731.46Z" transform="translate(-126.343 -239.336)" fill="#12263f"/>
          <path id="Trazado_115816" data-name="Trazado 115816" d="M342.384,409.3h5.726a1.831,1.831,0,0,1,.287.008.423.423,0,0,1,.385.435.413.413,0,0,1-.325.451,1.423,1.423,0,0,1-.381.029q-5.71,0-11.421,0a2.092,2.092,0,0,1-.383-.018.415.415,0,0,1-.366-.479.405.405,0,0,1,.4-.418,3.823,3.823,0,0,1,.384-.009Z" transform="translate(-314.319 -289.982)" fill="#12263f"/>
          <path id="Trazado_115817" data-name="Trazado 115817" d="M137.788,409.3c.724,0,1.448,0,2.172,0,.355,0,.539.149.552.432.014.305-.162.484-.531.486q-2.2.013-4.408.005a.452.452,0,0,1-.506-.454c-.006-.292.179-.467.517-.469.735,0,1.469,0,2.2,0Z" transform="translate(-126.337 -289.979)" fill="#12263f"/>
          <path id="Trazado_115818" data-name="Trazado 115818" d="M466.163,356.091c-.586,0-1.173,0-1.759,0-.386,0-.564-.145-.57-.447s.17-.472.546-.474q1.791-.009,3.582,0c.367,0,.562.174.56.467s-.2.454-.567.456C467.357,356.093,466.76,356.091,466.163,356.091Z" transform="translate(-434.056 -239.31)" fill="#12263f"/>
        </g>
      </g>
    </g>
    <path id="Trazado_115802" data-name="Trazado 115802" d="M400.014,76.04v46.008l13.532-23Z" transform="translate(138.474 9249.479)" fill="#1565c0"/>
    <path id="Trazado_115803" data-name="Trazado 115803" d="M400.014,76.04v46.008l13.532-23Z" transform="translate(395.849 9249.479)" fill="#1565c0"/>
    <path id="Trazado_115804" data-name="Trazado 115804" d="M400.014,76.04v46.008l13.532-23Z" transform="translate(650.97 9249.479)" fill="#1565c0"/>
  </g>
</svg>
