<svg xmlns="http://www.w3.org/2000/svg" xmlns:xlink="http://www.w3.org/1999/xlink" width="1011" height="440" viewBox="0 0 1011 440">
  <defs>
    <filter id="Elipse_5136" x="0" y="3" width="72" height="72" filterUnits="userSpaceOnUse">
      <feOffset dy="3" input="SourceAlpha"/>
      <feGaussianBlur stdDeviation="3" result="blur"/>
      <feFlood flood-opacity="0.161"/>
      <feComposite operator="in" in2="blur"/>
      <feComposite in="SourceGraphic"/>
    </filter>
    <filter id="Elipse_5137" x="7" y="10" width="58" height="58" filterUnits="userSpaceOnUse">
      <feOffset dy="3" input="SourceAlpha"/>
      <feGaussianBlur stdDeviation="3" result="blur-2"/>
      <feFlood flood-opacity="0.161"/>
      <feComposite operator="in" in2="blur-2"/>
      <feComposite in="SourceGraphic"/>
    </filter>
    <filter id="Elipse_5136-2" x="939" y="183" width="72" height="72" filterUnits="userSpaceOnUse">
      <feOffset dy="3" input="SourceAlpha"/>
      <feGaussianBlur stdDeviation="3" result="blur-3"/>
      <feFlood flood-opacity="0.161"/>
      <feComposite operator="in" in2="blur-3"/>
      <feComposite in="SourceGraphic"/>
    </filter>
    <filter id="Elipse_5137-2" x="946" y="190" width="58" height="58" filterUnits="userSpaceOnUse">
      <feOffset dy="3" input="SourceAlpha"/>
      <feGaussianBlur stdDeviation="3" result="blur-4"/>
      <feFlood flood-opacity="0.161"/>
      <feComposite operator="in" in2="blur-4"/>
      <feComposite in="SourceGraphic"/>
    </filter>
    <linearGradient id="linear-gradient" x1="0.5" x2="0.5" y2="1" gradientUnits="objectBoundingBox">
      <stop offset="0" stop-color="#4dd0e1"/>
      <stop offset="1" stop-color="#039be5"/>
    </linearGradient>
    <filter id="Rectángulo_42622" x="229" y="0" width="242" height="74" filterUnits="userSpaceOnUse">
      <feOffset dy="3" input="SourceAlpha"/>
      <feGaussianBlur stdDeviation="3" result="blur-5"/>
      <feFlood flood-opacity="0.161"/>
      <feComposite operator="in" in2="blur-5"/>
      <feComposite in="SourceGraphic"/>
    </filter>
    <filter id="Rectángulo_42623" x="229" y="183" width="242" height="74" filterUnits="userSpaceOnUse">
      <feOffset dy="3" input="SourceAlpha"/>
      <feGaussianBlur stdDeviation="3" result="blur-6"/>
      <feFlood flood-opacity="0.161"/>
      <feComposite operator="in" in2="blur-6"/>
      <feComposite in="SourceGraphic"/>
    </filter>
    <filter id="Rectángulo_42625" x="229" y="366" width="242" height="74" filterUnits="userSpaceOnUse">
      <feOffset dy="3" input="SourceAlpha"/>
      <feGaussianBlur stdDeviation="3" result="blur-7"/>
      <feFlood flood-opacity="0.161"/>
      <feComposite operator="in" in2="blur-7"/>
      <feComposite in="SourceGraphic"/>
    </filter>
    <filter id="Rectángulo_42624" x="599" y="183" width="242" height="74" filterUnits="userSpaceOnUse">
      <feOffset dy="3" input="SourceAlpha"/>
      <feGaussianBlur stdDeviation="3" result="blur-8"/>
      <feFlood flood-opacity="0.161"/>
      <feComposite operator="in" in2="blur-8"/>
      <feComposite in="SourceGraphic"/>
    </filter>
  </defs>
  <g id="Grupo_145846" data-name="Grupo 145846" transform="translate(-300 -27042)">
    <g id="Grupo_145844" data-name="Grupo 145844" transform="translate(30 60)">
      <g transform="matrix(1, 0, 0, 1, 270, 26982)" filter="url(#Elipse_5136)">
        <g id="Elipse_5136-3" data-name="Elipse 5136" transform="translate(9 9)" fill="none" stroke="#12263f" stroke-width="2">
          <circle cx="27" cy="27" r="27" stroke="none"/>
          <circle cx="27" cy="27" r="26" fill="none"/>
        </g>
      </g>
      <g transform="matrix(1, 0, 0, 1, 270, 26982)" filter="url(#Elipse_5137)">
        <g id="Elipse_5137-3" data-name="Elipse 5137" transform="translate(16 16)" fill="#12263f" stroke="#12263f" stroke-width="2">
          <circle cx="20" cy="20" r="20" stroke="none"/>
          <circle cx="20" cy="20" r="19" fill="none"/>
        </g>
      </g>
    </g>
    <g id="Grupo_145845" data-name="Grupo 145845" transform="translate(969 240)">
      <g transform="matrix(1, 0, 0, 1, -669, 26802)" filter="url(#Elipse_5136-2)">
        <g id="Elipse_5136-4" data-name="Elipse 5136" transform="translate(948 189)" fill="none" stroke="#12263f" stroke-width="2">
          <circle cx="27" cy="27" r="27" stroke="none"/>
          <circle cx="27" cy="27" r="26" fill="none"/>
        </g>
      </g>
      <g transform="matrix(1, 0, 0, 1, -669, 26802)" filter="url(#Elipse_5137-2)">
        <g id="Elipse_5137-4" data-name="Elipse 5137" transform="translate(955 196)" fill="#12263f" stroke="#12263f" stroke-width="2">
          <circle cx="20" cy="20" r="20" stroke="none"/>
          <circle cx="20" cy="20" r="19" fill="none"/>
        </g>
      </g>
    </g>
    <g transform="matrix(1, 0, 0, 1, 300, 27042)" filter="url(#Rectángulo_42622)">
      <rect id="Rectángulo_42622-2" data-name="Rectángulo 42622" width="224" height="56" rx="10" transform="translate(238 6)" fill="url(#linear-gradient)"/>
    </g>
    <g transform="matrix(1, 0, 0, 1, 300, 27042)" filter="url(#Rectángulo_42623)">
      <rect id="Rectángulo_42623-2" data-name="Rectángulo 42623" width="224" height="56" rx="10" transform="translate(238 189)" fill="url(#linear-gradient)"/>
    </g>
    <g transform="matrix(1, 0, 0, 1, 300, 27042)" filter="url(#Rectángulo_42625)">
      <rect id="Rectángulo_42625-2" data-name="Rectángulo 42625" width="224" height="56" rx="10" transform="translate(238 372)" fill="url(#linear-gradient)"/>
    </g>
    <g transform="matrix(1, 0, 0, 1, 300, 27042)" filter="url(#Rectángulo_42624)">
      <rect id="Rectángulo_42624-2" data-name="Rectángulo 42624" width="224" height="56" rx="10" transform="translate(608 189)" fill="url(#linear-gradient)"/>
    </g>
    <text id="Transitorio" transform="translate(595 27064)" fill="#fff" font-size="22" font-family="Roboto-Black, Roboto" font-weight="800"><tspan x="0" y="23">Transitorio</tspan></text>
    <text id="Persistente" transform="translate(590 27247)" fill="#fff" font-size="22" font-family="Roboto-Black, Roboto" font-weight="800"><tspan x="0" y="23">Persistente</tspan></text>
    <text id="Independiente" transform="translate(580 27430)" fill="#fff" font-size="22" font-family="Roboto-Black, Roboto" font-weight="800"><tspan x="0" y="23">Independiente</tspan></text>
    <text id="Eliminado" transform="translate(960 27247)" fill="#fff" font-size="22" font-family="Roboto-Black, Roboto" font-weight="800"><tspan x="0" y="23">Eliminado</tspan></text>
    <path id="Trazado_189348" data-name="Trazado 189348" d="M-7564,15378h160.521" transform="translate(7928 11700)" fill="none" stroke="red" stroke-width="3"/>
    <path id="Polígono_56" data-name="Polígono 56" d="M6.5,0,13,10.4H0Z" transform="translate(531.723 27071.498) rotate(90)" fill="red"/>
    <path id="Trazado_189349" data-name="Trazado 189349" d="M-7159.495,15378l476.755,160" transform="translate(7927 11700)" fill="none" stroke="red" stroke-width="3"/>
    <path id="Trazado_189350" data-name="Trazado 189350" d="M-7277,15404v119.708" transform="translate(7927 11700)" fill="none" stroke="red" stroke-width="3"/>
    <path id="Trazado_189355" data-name="Trazado 189355" d="M-7277,15404v119.708" transform="translate(7872 11890.292)" fill="none" stroke="red" stroke-width="3"/>
    <path id="Trazado_189356" data-name="Trazado 189356" d="M-7277,15404v119.708" transform="translate(7979 11883)" fill="none" stroke="red" stroke-width="3"/>
    <path id="Trazado_189351" data-name="Trazado 189351" d="M-7165,15558h137.917" transform="translate(7927 11700)" fill="none" stroke="red" stroke-width="3"/>
    <path id="Trazado_189352" data-name="Trazado 189352" d="M-6795,15559h109.2" transform="translate(7927 11700)" fill="none" stroke="red" stroke-width="3"/>
    <path id="Trazado_189353" data-name="Trazado 189353" d="M-7159.495,15742.5l482.349-159.536" transform="translate(7927 11700)" fill="none" stroke="red" stroke-width="3"/>
    <path id="Trazado_189354" data-name="Trazado 189354" d="M-7395.277,15558l-179.462-156.308" transform="translate(7927 11700)" fill="none" stroke="red" stroke-width="3"/>
    <path id="Polígono_57" data-name="Polígono 57" d="M6.5,0,13,10.4H0Z" transform="translate(539.857 27256.221) rotate(129)" fill="red"/>
    <path id="Polígono_58" data-name="Polígono 58" d="M6.5,0,13,10.4H0Z" transform="translate(588.498 27289.09)" fill="red"/>
    <path id="Polígono_59" data-name="Polígono 59" d="M6.5,0,13,10.4H0Z" transform="translate(693.244 27406.537) rotate(-60)" fill="red"/>
    <path id="Polígono_60" data-name="Polígono 60" d="M6.5,0,13,10.4H0Z" transform="translate(656.502 27228.91) rotate(180)" fill="red"/>
    <path id="Polígono_61" data-name="Polígono 61" d="M6.5,0,13,10.4H0Z" transform="translate(905.118 27251.498) rotate(90)" fill="red"/>
    <path id="Polígono_64" data-name="Polígono 64" d="M6.5,0,13,10.4H0Z" transform="translate(1245.405 27251.498) rotate(90)" fill="red"/>
    <path id="Polígono_62" data-name="Polígono 62" d="M6.5,0,13,10.4H0Z" transform="translate(1251.295 27233.541) rotate(109)" fill="red"/>
    <path id="Polígono_63" data-name="Polígono 63" d="M6.5,0,13,10.4H0Z" transform="translate(1252.12 27273.84) rotate(64)" fill="red"/>
    <text id="load_get_Query.list_Query.iterate_" data-name="load()
get()
Query.list()
Query.iterate()
" transform="translate(348 27178)" fill="#afafaf" font-size="16" font-family="Roboto-Italic, Roboto" font-style="italic"><tspan x="0" y="0">load()</tspan><tspan x="0" y="19">get()</tspan><tspan x="0" y="38">Query.list()</tspan><tspan x="0" y="57">Query.iterate()</tspan><tspan x="0" y="76"></tspan></text>
    <text id="new_" data-name="new
" transform="translate(435 27064)" fill="#afafaf" font-size="16" font-family="Roboto-Italic, Roboto" font-style="italic"><tspan x="0" y="0">new</tspan><tspan x="0" y="19"></tspan></text>
    <text id="save_saveOrUpdate_merge_persist_" data-name="save()
saveOrUpdate()
merge()
persist()" transform="translate(672 27140)" fill="#afafaf" font-size="16" font-family="Roboto-Italic, Roboto" font-style="italic"><tspan x="0" y="0">save()</tspan><tspan x="0" y="19">saveOrUpdate()</tspan><tspan x="0" y="38">merge()</tspan><tspan x="0" y="57">persist()</tspan></text>
    <text id="remove_" data-name="remove()" transform="translate(800 27239)" fill="#afafaf" font-size="16" font-family="Roboto-Italic, Roboto" font-style="italic"><tspan x="0" y="0">remove()</tspan></text>
    <text id="garbage" transform="translate(984 27125)" fill="#afafaf" font-size="16" font-family="Roboto-Italic, Roboto" font-style="italic"><tspan x="0" y="0">garbage</tspan></text>
    <text id="garbage-2" data-name="garbage" transform="translate(984 27389)" fill="#afafaf" font-size="16" font-family="Roboto-Italic, Roboto" font-style="italic"><tspan x="0" y="0">garbage</tspan></text>
    <text id="garbage-3" data-name="garbage" transform="translate(1151 27247)" fill="#afafaf" font-size="16" font-family="Roboto-Italic, Roboto" font-style="italic"><tspan x="0" y="0">garbage</tspan></text>
    <text id="evit_clear_close_" data-name="evit()
clear()
close()" transform="translate(718 27325)" fill="#afafaf" font-size="16" font-family="Roboto-Italic, Roboto" font-style="italic"><tspan x="0" y="0">evit()</tspan><tspan x="0" y="19">clear()</tspan><tspan x="0" y="38">close()</tspan></text>
    <text id="Update_saveOrUpdate_merge_" data-name="Update()
saveOrUpdate()
merge()
" transform="translate(468 27339)" fill="#afafaf" font-size="16" font-family="Roboto-Italic, Roboto" font-style="italic"><tspan x="0" y="0">Update()</tspan><tspan x="0" y="19">saveOrUpdate()</tspan><tspan x="0" y="38">merge()</tspan><tspan x="0" y="57"></tspan></text>
  </g>
</svg>
