<svg xmlns="http://www.w3.org/2000/svg" width="94.065" height="112.878" viewBox="0 0 94.065 112.878">
  <g id="Grupo_146136" data-name="Grupo 146136" transform="translate(-734.081 -15943.064)">
    <g id="Rectángulo_42753" data-name="Rectángulo 42753" transform="translate(734.081 15943.064)" fill="#fff" stroke="#afafaf" stroke-width="1">
      <rect width="94.065" height="112.878" rx="10" stroke="none"/>
      <rect x="0.5" y="0.5" width="93.065" height="111.878" rx="9.5" fill="none"/>
    </g>
    <g id="jS21yb.tif" transform="translate(753.479 15966.371)">
      <g id="Grupo_142300" data-name="Grupo 142300" transform="translate(0 0)">
        <path id="Trazado_118083" data-name="Trazado 118083" d="M-86.978,2645.989c2.091-2.482,3.907-4.648,5.735-6.805s3.721-2.321,5.89-.528c3.632,3,3.737,4.162.7,7.78-3.888,4.629-7.791,9.246-11.642,13.907a3.1,3.1,0,0,0-.653,1.818c-.045,7.119-.026,14.239-.03,21.358,0,2.628-1.124,3.745-3.76,3.746q-18.91.005-37.82,0c-2.556,0-3.7-1.134-3.7-3.68q-.005-27.212,0-54.421c0-2.478,1.152-3.647,3.6-3.648,10.334-.006,20.668.007,31-.017a4.041,4.041,0,0,1,3.1,1.26q3.145,3.221,6.366,6.369a3.879,3.879,0,0,1,1.223,2.985C-87,2639.27-86.978,2642.43-86.978,2645.989Zm-2.057-10.186c-2.263,0-4.394.006-6.525,0-1.5-.006-1.7-.212-1.706-1.721-.007-2.13,0-4.26,0-6.42a5.531,5.531,0,0,0-.624-.083q-15.432-.007-30.863-.018c-1.268,0-1.457.691-1.457,1.736q.021,27.072.012,54.145c0,1.58.19,1.767,1.79,1.767q18.775,0,37.55,0c1.662,0,1.823-.165,1.824-1.862q0-9.133,0-18.263V2663.6c-1.869,2.215-3.479,4.135-5.107,6.041a3.7,3.7,0,0,1-1.107,1.044q-3.8,1.729-7.656,3.331a1.013,1.013,0,0,1-1.46-1.228c.607-2.717,1.265-5.423,1.957-8.119a3.333,3.333,0,0,1,.757-1.167c3.538-4.25,7.01-8.557,10.671-12.7a7.132,7.132,0,0,0,1.99-5.516C-89.165,2642.175-89.035,2639.052-89.035,2635.8Zm6.627,7.937L-99.97,2664.68l4.3,3.606,17.566-20.935Z" transform="translate(132.259 -2625.498)" fill="#12263f"/>
        <path id="Trazado_118084" data-name="Trazado 118084" d="M-100.284,2757.278h-2.821a1.113,1.113,0,0,1-1.262-1.26c0-1.924,0-3.848,0-5.771a1.068,1.068,0,0,1,1.19-1.193c1.924-.008,3.847,0,5.771,0a1.113,1.113,0,0,1,1.262,1.259c0,1.924,0,3.848,0,5.771a1.071,1.071,0,0,1-1.191,1.194C-98.317,2757.284-99.3,2757.277-100.284,2757.278Zm2.059-6.086h-3.989v3.923h3.989Z" transform="translate(111.573 -2717.128)" fill="#12263f"/>
        <path id="Trazado_118085" data-name="Trazado 118085" d="M-100.22,2796.825c.9,0,1.8.013,2.693,0s1.366.372,1.363,1.292q-.007,2.823,0,5.644c0,.918-.461,1.308-1.355,1.3-1.838-.013-3.676-.016-5.514,0-.984.01-1.379-.469-1.368-1.423.021-1.795.027-3.591,0-5.387-.017-1.051.475-1.469,1.489-1.432C-102.016,2796.849-101.118,2796.825-100.22,2796.825Zm1.916,6.147v-4h-3.928v4Z" transform="translate(111.6 -2752.552)" fill="#12263f"/>
        <path id="Trazado_118086" data-name="Trazado 118086" d="M-54.139,2713.178c2.91,0,5.82.006,8.73,0,.794,0,1.562.1,1.522,1.093-.036.9-.778.973-1.515.971q-8.73-.011-17.46,0c-.793,0-1.561-.1-1.522-1.093.036-.9.779-.975,1.515-.971C-59.959,2713.185-57.049,2713.178-54.139,2713.178Z" transform="translate(81.922 -2690.522)" fill="#12263f"/>
        <path id="Trazado_118087" data-name="Trazado 118087" d="M-53.741,2667.425c-1.753,0-3.51.071-5.255-.046a1.73,1.73,0,0,1-1.3-.981c-.151-.771.536-1.032,1.269-1.03,3.548.006,7.1-.034,10.644.047.462.011.909.632,1.363.97-.445.347-.873.963-1.339.992C-50.145,2667.495-51.945,2667.425-53.741,2667.425Z" transform="translate(78.903 -2655.062)" fill="#12263f"/>
        <path id="Trazado_118088" data-name="Trazado 118088" d="M-99.655,2658.876c.841-1.665,1.578-3.1,2.289-4.543.344-.7.749-1.388,1.634-.932s.539,1.2.193,1.883c-.887,1.751-1.748,3.515-2.645,5.262-.622,1.21-1.192,1.311-2.153.387a28.653,28.653,0,0,1-2.594-2.654c-.271-.338-.112-1.022-.15-1.548.526.045,1.182-.091,1.549.174A14.444,14.444,0,0,1-99.655,2658.876Z" transform="translate(110.628 -2646.083)" fill="#12263f"/>
        <path id="Trazado_118089" data-name="Trazado 118089" d="M-100.542,2706.646c.827-1.644,1.539-3.047,2.237-4.457.336-.679.7-1.419,1.612-.994s.612,1.165.26,1.858c-.907,1.789-1.785,3.593-2.706,5.375-.583,1.127-1.164,1.22-2.079.35-.866-.823-1.7-1.687-2.546-2.527-.5-.5-.841-1.05-.257-1.663.643-.676,1.231-.31,1.752.234S-101.214,2705.936-100.542,2706.646Z" transform="translate(111.545 -2681.545)" fill="#12263f"/>
        <path id="Trazado_118090" data-name="Trazado 118090" d="M-58.726,2763.029c-1.453,0-2.906,0-4.358,0-.744,0-1.384-.309-1.225-1.08a1.62,1.62,0,0,1,1.222-.933c2.9-.083,5.81-.041,8.716-.045.745,0,1.383.309,1.225,1.078a1.65,1.65,0,0,1-1.225.933C-55.814,2763.1-57.273,2763.029-58.726,2763.029Z" transform="translate(81.883 -2725.965)" fill="#12263f"/>
        <path id="Trazado_118091" data-name="Trazado 118091" d="M-60.429,2810.765a17.145,17.145,0,0,1-2.809-.045c-.453-.076-.826-.632-1.236-.971.4-.345.789-.965,1.209-.989a51.869,51.869,0,0,1,5.757,0c.427.023.821.631,1.231.97-.4.344-.768.917-1.214.989A18.987,18.987,0,0,1-60.429,2810.765Z" transform="translate(81.987 -2761.351)" fill="#12263f"/>
      </g>
    </g>
  </g>
</svg>
