<svg xmlns="http://www.w3.org/2000/svg" xmlns:xlink="http://www.w3.org/1999/xlink" width="632.178" height="1023.313" viewBox="0 0 632.178 1023.313">
  <defs>
    <linearGradient id="linear-gradient" x1="0.353" y1="1.35" x2="0.702" y2="-0.696" gradientUnits="objectBoundingBox">
      <stop offset="0" stop-color="#f5f5f5"/>
      <stop offset="0.25" stop-color="#f5f5f5"/>
      <stop offset="1" stop-color="#afafaf"/>
    </linearGradient>
    <linearGradient id="linear-gradient-2" x1="0.5" y1="0" x2="0.5" y2="1" xlink:href="#linear-gradient"/>
  </defs>
  <g id="Grupo_146132" data-name="Grupo 146132" transform="translate(-452.863 -10407.252)">
    <g id="Grupo_142856" data-name="Grupo 142856" transform="translate(452.863 10407.252)">
      <rect id="Rectángulo_37342" data-name="Rectángulo 37342" width="631.295" height="953.412" rx="4.872" transform="translate(0.339 0)" fill="#12263f"/>
      <path id="Trazado_183947" data-name="Trazado 183947" d="M333.614,184.776v828.153c0,14.4-1.517,28.259,4.04,28.259l623.963-1.889c5.555,0,3.682-11.968,3.682-26.37V184.776Z" transform="translate(-333.424 -87.776)" fill="url(#linear-gradient)"/>
      <rect id="Rectángulo_37343" data-name="Rectángulo 37343" width="28.022" height="532.654" rx="5.408" transform="translate(582.314 48.961) rotate(90)" fill="url(#linear-gradient-2)"/>
      <path id="Trazado_183948" data-name="Trazado 183948" d="M371.649,162.073a7.612,7.612,0,1,1-7.611-7.614A7.611,7.611,0,0,1,371.649,162.073Z" transform="translate(-278.236 -136.459)" fill="#fff"/>
      <path id="Trazado_183951" data-name="Trazado 183951" d="M371.649,162.073a7.612,7.612,0,1,1-7.611-7.614A7.611,7.611,0,0,1,371.649,162.073Z" transform="translate(-308.622 -136.459)" fill="#ffa726"/>
      <path id="Trazado_183949" data-name="Trazado 183949" d="M381.466,162.073a7.614,7.614,0,1,1-7.614-7.614A7.614,7.614,0,0,1,381.466,162.073Z" transform="translate(-257.663 -136.459)" fill="#26a69a"/>
    </g>
    <text id="package_com.sena_public_class_AprendizBean_private_String_primernombre_private_String_apellidos_private_String_cedula_public_String_getPrimerNombre_return_primernombre_public_void_setPrimerNombre_String_nombre_" data-name="package com.sena
 
public class AprendizBean {
   private String primernombre;
   private String apellidos;
   private String cedula; 
 
   public String getPrimerNombre () {
   return primernombre;
   } 
 
   public void setPrimerNombre (String nombre) {
" transform="translate(570.308 10525.564)" fill="#12263f" font-size="16" font-family="Roboto-Bold, Roboto" font-weight="700"><tspan x="0" y="17">package com.sena</tspan><tspan x="0" y="39"> </tspan><tspan x="0" y="61">public class AprendizBean {</tspan><tspan x="0" y="83" xml:space="preserve">   private String primernombre;</tspan><tspan x="0" y="105" xml:space="preserve">   private String apellidos;</tspan><tspan x="0" y="127" xml:space="preserve">   private String cedula; </tspan><tspan x="0" y="149"> </tspan><tspan x="0" y="171" xml:space="preserve">   public String getPrimerNombre () {</tspan><tspan x="0" y="193" xml:space="preserve">   return primernombre;</tspan><tspan x="0" y="215" xml:space="preserve">   } </tspan><tspan x="0" y="237"> </tspan><tspan x="0" y="259" xml:space="preserve">   public void setPrimerNombre (String nombre) {</tspan><tspan x="0" y="281" xml:space="preserve">   this.primernombre = nombre;</tspan><tspan x="0" y="303" xml:space="preserve">   } </tspan><tspan x="0" y="325"> </tspan><tspan x="0" y="347" xml:space="preserve">   public String getApellidos () {</tspan><tspan x="0" y="369" xml:space="preserve">   return apellidos;</tspan><tspan x="0" y="391" xml:space="preserve">   } </tspan><tspan x="0" y="413"> </tspan><tspan x="0" y="435" xml:space="preserve">   public void setApellidos (String apellidos) {</tspan><tspan x="0" y="457" xml:space="preserve">   this.apellido = apellidos;</tspan><tspan x="0" y="479" xml:space="preserve">   } </tspan><tspan x="0" y="501"> </tspan><tspan x="0" y="523" xml:space="preserve">   public String getCedula () {</tspan><tspan x="0" y="545" xml:space="preserve">   return cedula;</tspan><tspan x="0" y="567" xml:space="preserve">   }</tspan><tspan x="0" y="589"> </tspan><tspan x="0" y="611" xml:space="preserve">  public void setCedula (String cedula) {</tspan><tspan x="0" y="633" xml:space="preserve">  this.cedula = cedula;</tspan><tspan x="0" y="655" xml:space="preserve">  } </tspan><tspan x="0" y="677"> </tspan><tspan x="0" y="699" xml:space="preserve">  public void verAprendiz () {</tspan><tspan x="0" y="721" xml:space="preserve">  System.out.println(primernombre+” “+apellidos+”, es la </tspan><tspan x="0" y="743">actual estudiante”);</tspan><tspan x="0" y="765" xml:space="preserve">  }</tspan><tspan x="0" y="787"> </tspan><tspan x="0" y="809">}</tspan><tspan x="0" y="831"></tspan></text>
    <text id="_1_2_3_4_5_6_7_8_9_10_11_12_13_14_15_16_17_18_19_20_21_22_23_24_25_26_27_28_29_30" data-name="1
2
3
4
5
6
7
8
9
10
11
12
13
14
15
16
17
18
19
20
21
22
23
24
25
26
27
28
29
30" transform="translate(522.308 10558.564)" fill="#12263f" font-size="18" font-family="Roboto-Black, Roboto" font-weight="800"><tspan x="-5.212" y="0">1</tspan><tspan x="-5.212" y="26">2</tspan><tspan x="-5.212" y="52">3</tspan><tspan x="-5.212" y="78">4</tspan><tspan x="-5.212" y="104">5</tspan><tspan x="-5.212" y="130">6</tspan><tspan x="-5.212" y="156">7</tspan><tspan x="-5.212" y="182">8</tspan><tspan x="-5.212" y="208">9</tspan><tspan x="-10.424" y="234">10</tspan><tspan x="-10.424" y="260">11</tspan><tspan x="-10.424" y="286">12</tspan><tspan x="-10.424" y="312">13</tspan><tspan x="-10.424" y="338">14</tspan><tspan x="-10.424" y="364">15</tspan><tspan x="-10.424" y="390">16</tspan><tspan x="-10.424" y="416">17</tspan><tspan x="-10.424" y="442">18</tspan><tspan x="-10.424" y="468">19</tspan><tspan x="-10.424" y="494">20</tspan><tspan x="-10.424" y="520">21</tspan><tspan x="-10.424" y="546">22</tspan><tspan x="-10.424" y="572">23</tspan><tspan x="-10.424" y="598">24</tspan><tspan x="-10.424" y="624">25</tspan><tspan x="-10.424" y="650">26</tspan><tspan x="-10.424" y="676">27</tspan><tspan x="-10.424" y="702">28</tspan><tspan x="-10.424" y="728">29</tspan><tspan x="-10.424" y="754">30</tspan></text>
  </g>
</svg>
