<svg xmlns="http://www.w3.org/2000/svg" width="713.906" height="360.513" viewBox="0 0 713.906 360.513">
  <g id="Grupo_145696" data-name="Grupo 145696" transform="translate(-240.086 -3586.369)">
    <g id="Grupo_145674" data-name="Grupo 145674" transform="translate(-93.338 3387.043)">
      <path id="Trazado_183947" data-name="Trazado 183947" d="M333.638,184.776v265.1c0,4.61-1.714,9.046,4.562,9.046l704.629-.6c6.273,0,4.158-3.831,4.158-8.441v-265.1Z" transform="translate(0 100.914)"/>
      <path id="Trazado_189275" data-name="Trazado 189275" d="M5.509,0H708.4c3.043,0,5.509.257,5.509.575v85.85c0,.317-2.467.575-5.509.575H5.509C2.467,87,0,86.742,0,86.425V.575C0,.257,2.467,0,5.509,0Z" transform="translate(333.424 199.326)" fill="#ffa726"/>
      <rect id="Rectángulo_42586" data-name="Rectángulo 42586" width="20.793" height="640.712" rx="5.408" transform="translate(1010.733 235.656) rotate(90)" fill="#fff"/>
      <path id="Trazado_189276" data-name="Trazado 189276" d="M367.722,160.108a5.648,5.648,0,1,1-5.647-5.649A5.648,5.648,0,0,1,367.722,160.108Z" transform="translate(34.766 58.223)" fill="#fff"/>
      <path id="Trazado_189277" data-name="Trazado 189277" d="M367.722,160.108a5.648,5.648,0,1,1-5.647-5.649A5.648,5.648,0,0,1,367.722,160.108Z" transform="translate(12.219 58.223)" fill="#12263f"/>
      <path id="Trazado_189278" data-name="Trazado 189278" d="M377.538,160.108a5.649,5.649,0,1,1-5.649-5.649A5.65,5.65,0,0,1,377.538,160.108Z" transform="translate(47.5 58.223)" fill="#26a69a"/>
    </g>
    <text id="public_interface_HolaPlaneta_void_enviarSaludo_public_class_HolaPlanetaIpml_implements_HolaPlaneta_Override_public_void_enviarSaludo_System.out.println_Hola_Planeta_estamos_en_Spring_Framework_" data-name="public interface HolaPlaneta {
    void enviarSaludo ();
}

public class HolaPlanetaIpml implements HolaPlaneta {
    @Override
    public void enviarSaludo () {
        System.out.println(“Hola Planeta estamos en Spring Framework”);
    }
" transform="translate(279 3704)" fill="#fff" font-size="16" font-family="Roboto-Bold, Roboto" font-weight="700"><tspan x="0" y="17">public interface HolaPlaneta {</tspan><tspan x="0" y="41" xml:space="preserve">    void enviarSaludo ();</tspan><tspan x="0" y="65">}</tspan><tspan x="0" y="89"></tspan><tspan x="0" y="113">public class HolaPlanetaIpml implements HolaPlaneta {</tspan><tspan x="0" y="137" xml:space="preserve">    @Override</tspan><tspan x="0" y="161" xml:space="preserve">    public void enviarSaludo () {</tspan><tspan x="0" y="185" xml:space="preserve">        System.out.println(“Hola Planeta estamos en Spring Framework”);</tspan><tspan x="0" y="209" xml:space="preserve">    }</tspan><tspan x="0" y="233"></tspan></text>
  </g>
</svg>
