<svg xmlns="http://www.w3.org/2000/svg" xmlns:xlink="http://www.w3.org/1999/xlink" width="736.381" height="405.29" viewBox="0 0 736.381 405.29">
  <defs>
    <linearGradient id="linear-gradient" x1="0.353" y1="1.35" x2="0.702" y2="-0.696" gradientUnits="objectBoundingBox">
      <stop offset="0" stop-color="#f5f5f5"/>
      <stop offset="0.25" stop-color="#f5f5f5"/>
      <stop offset="1" stop-color="#afafaf"/>
    </linearGradient>
    <linearGradient id="linear-gradient-2" x1="0.5" y1="0" x2="0.5" y2="1" xlink:href="#linear-gradient"/>
  </defs>
  <g id="Grupo_146133" data-name="Grupo 146133" transform="translate(-422.863 -11492.343)">
    <g id="Grupo_142856" data-name="Grupo 142856" transform="translate(422.863 11492.343)">
      <rect id="Rectángulo_37342" data-name="Rectángulo 37342" width="735.498" height="405.29" rx="4.872" transform="translate(0.339)" fill="#12263f"/>
      <path id="Trazado_183947" data-name="Trazado 183947" d="M333.645,184.776V482.894c0,5.184-1.768,10.173,4.706,10.173l726.812-.68c6.471,0,4.289-4.308,4.289-9.493V184.776Z" transform="translate(-333.424 -87.776)" fill="url(#linear-gradient)"/>
      <rect id="Rectángulo_37343" data-name="Rectángulo 37343" width="28.022" height="636.857" rx="5.408" transform="translate(686.516 48.961) rotate(90)" fill="url(#linear-gradient-2)"/>
      <path id="Trazado_183948" data-name="Trazado 183948" d="M371.649,162.073a7.612,7.612,0,1,1-7.611-7.614A7.611,7.611,0,0,1,371.649,162.073Z" transform="translate(-278.236 -136.459)" fill="#fff"/>
      <path id="Trazado_183951" data-name="Trazado 183951" d="M371.649,162.073a7.612,7.612,0,1,1-7.611-7.614A7.611,7.611,0,0,1,371.649,162.073Z" transform="translate(-308.622 -136.459)" fill="#ffa726"/>
      <path id="Trazado_183949" data-name="Trazado 183949" d="M381.466,162.073a7.614,7.614,0,1,1-7.614-7.614A7.614,7.614,0,0,1,381.466,162.073Z" transform="translate(-257.663 -136.459)" fill="#26a69a"/>
    </g>
    <text id="_amp_amp_lt_DOCTYPE_beans_PUBLIC_-_PRING_DTD_BEAN_2.0_ES_http:_www.springframework.org_dtd_spring-beans-2.0.dtd_amp_amp_gt_amp_amp_lt_beans_amp_amp_gt_amp_amp_lt_bean_id_aprendiz_class_com.sena.AprendizBean_amp_amp_gt_amp_amp_lt_prop" data-name="&amp;amp;amp;lt;!DOCTYPE beans PUBLIC “-//PRING//DTD// BEAN 2.0//ES”
“http://www.springframework.org/dtd/spring-beans-2.0.dtd”&amp;amp;amp;gt;
&amp;amp;amp;lt;beans&amp;amp;amp;gt;
 &amp;amp;amp;lt;bean id=“aprendiz” class=“com.sena.AprendizBean”&amp;amp;amp;gt;
 &amp;amp;amp;lt;prop" transform="translate(540.308 11620.655)" fill="#12263f" font-size="16" font-family="Roboto-Bold, Roboto" font-weight="700"><tspan x="0" y="17">&amp;amp;amp;lt;!DOCTYPE beans PUBLIC “-//PRING//DTD// BEAN 2.0//ES”</tspan><tspan x="0" y="44">“</tspan><tspan y="44" fill="#1565c0" text-decoration="underline">http://www.springframework.org/dtd</tspan><tspan y="44">/spring-beans-2.0.dtd”&amp;amp;amp;gt;</tspan><tspan x="0" y="71">&amp;amp;amp;lt;beans&amp;amp;amp;gt;</tspan><tspan x="0" y="98" xml:space="preserve"> &amp;amp;amp;lt;bean id=“aprendiz” class=“com.sena.AprendizBean”&amp;amp;amp;gt;</tspan><tspan x="0" y="125" xml:space="preserve"> &amp;amp;amp;lt;property name=“primernombre” value=“Zulema”&amp;amp;amp;gt;</tspan><tspan x="0" y="152" xml:space="preserve"> &amp;amp;amp;lt;property name=“apellidos” value=“Leon”&amp;amp;amp;gt;</tspan><tspan x="0" y="179" xml:space="preserve"> &amp;amp;amp;lt;property name=“cedula” value=“25.311.165”&amp;amp;amp;gt;</tspan><tspan x="0" y="206" xml:space="preserve"> &amp;amp;amp;lt;/bean&amp;amp;amp;gt;</tspan><tspan x="0" y="233">&amp;amp;amp;lt;/beans&amp;amp;amp;gt;</tspan><tspan x="0" y="260"></tspan></text>
    <line id="Línea_1804" data-name="Línea 1804" y2="288.456" transform="translate(525.823 11596.044)" fill="none" stroke="#afafaf" stroke-linecap="round" stroke-width="1"/>
    <text id="_1_2_3_4_5_6_7_8_9" data-name="1
2
3
4
5
6
7
8
9" transform="translate(492.308 11643.655)" fill="#12263f" font-size="18" font-family="Roboto-Black, Roboto" font-weight="800"><tspan x="-5.212" y="0">1</tspan><tspan x="-5.212" y="26">2</tspan><tspan x="-5.212" y="52">3</tspan><tspan x="-5.212" y="78">4</tspan><tspan x="-5.212" y="104">5</tspan><tspan x="-5.212" y="130">6</tspan><tspan x="-5.212" y="156">7</tspan><tspan x="-5.212" y="182">8</tspan><tspan x="-5.212" y="208">9</tspan></text>
    <g id="Rectángulo_42689" data-name="Rectángulo 42689" transform="translate(520 11674)" fill="none" stroke="red" stroke-width="3">
      <rect width="612" height="78" stroke="none"/>
      <rect x="1.5" y="1.5" width="609" height="75" fill="none"/>
    </g>
  </g>
</svg>
