<svg id="Grupo_111593" data-name="Grupo 111593" xmlns="http://www.w3.org/2000/svg" xmlns:xlink="http://www.w3.org/1999/xlink" width="114.636" height="114.637" viewBox="0 0 114.636 114.637">
  <defs>
    <radialGradient id="radial-gradient" cx="0.076" cy="0.019" r="1.465" gradientTransform="translate(0.001)" gradientUnits="objectBoundingBox">
      <stop offset="0" stop-color="#f6f6f7"/>
      <stop offset="0.477" stop-color="#f9f9fa"/>
      <stop offset="0.715" stop-color="#fff"/>
    </radialGradient>
  </defs>
  <g id="Grupo_18423" data-name="Grupo 18423" transform="translate(0 0)">
    <g id="Grupo_18421" data-name="Grupo 18421">
      <g id="Grupo_18420" data-name="Grupo 18420">
        <g id="Grupo_18419" data-name="Grupo 18419">
          <path id="Trazado_40936" data-name="Trazado 40936" d="M309.259,2203.037a57.318,57.318,0,1,1-57.317-57.316A57.317,57.317,0,0,1,309.259,2203.037Z" transform="translate(-194.623 -2145.721)" fill="#fff"/>
        </g>
      </g>
    </g>
    <path id="Trazado_40937" data-name="Trazado 40937" d="M308.648,2202.372a57.316,57.316,0,1,0-57.317,57.319A57.091,57.091,0,0,0,308.648,2202.372Z" transform="translate(-194.013 -2145.056)" fill="url(#radial-gradient)"/>
    <path id="Trazado_40938" data-name="Trazado 40938" d="M289.672,2196.986a43.75,43.75,0,1,0-43.75,43.75A43.587,43.587,0,0,0,289.672,2196.986Z" transform="translate(-188.43 -2139.479)" fill="none" stroke="#00223d" stroke-miterlimit="10" stroke-width="4"/>
    <g id="Grupo_18422" data-name="Grupo 18422" transform="translate(10.154 32.18)">
      <path id="Trazado_40939" data-name="Trazado 40939" d="M299.231,2164.488a57.325,57.325,0,0,1-98.686,57.081,57.143,57.143,0,0,0,98.686-57.081Z" transform="translate(-200.545 -2164.488)" fill="#eceef0"/>
    </g>
  </g>
  <g id="mRGiiG.tif" transform="translate(-3408.826 2228.276)">
    <g id="Grupo_143140" data-name="Grupo 143140" transform="translate(3445.923 -2197.9)">
      <path id="Trazado_184343" data-name="Trazado 184343" d="M3458.3-2140.53a3.214,3.214,0,0,1-1.9-1.344,2.96,2.96,0,0,1,.4-3.652,2.848,2.848,0,0,1-.4-2.793,2.316,2.316,0,0,1,.58-.893.747.747,0,0,0,.267-.9,23.622,23.622,0,0,0-1.482-3.546c-1.3-2.18-2.852-4.212-4.146-6.4a40.607,40.607,0,0,1-5.516-15.656,18.777,18.777,0,0,1,2.2-11.868,19.277,19.277,0,0,1,6.959-7.131,22.5,22.5,0,0,1,11.478-3.192c.8-.014,1.146.368,1.147,1.266q0,7.091,0,14.182v.73h3.843v-1.044c0-1.139-.012-2.279.007-3.417a.625.625,0,0,0-.394-.652,2.8,2.8,0,0,1-1.434-3.219,2.878,2.878,0,0,1,2.808-2.155,2.877,2.877,0,0,1,2.745,2.231,2.893,2.893,0,0,1-1.412,3.15c-.169.1-.39.3-.393.459-.03,1.535-.018,3.071-.018,4.7.547,0,1.051,0,1.555,0,1.006,0,1.31.314,1.315,1.338,0,.488,0,.977,0,1.493h2.855c0-.96.014-1.92-.018-2.879,0-.119-.242-.254-.4-.34a2.855,2.855,0,0,1-1.4-3.195,2.878,2.878,0,0,1,2.736-2.173,2.858,2.858,0,0,1,2.786,2.1,2.816,2.816,0,0,1-1.416,3.28.582.582,0,0,0-.373.608c.018,1.082.012,2.164.005,3.246-.006.95-.356,1.3-1.314,1.3-1.134.005-2.267,0-3.432,0v3.8h2.047c1.12,0,2.24-.009,3.36.006a.621.621,0,0,0,.654-.385,2.815,2.815,0,0,1,3.285-1.407,2.838,2.838,0,0,1,2.057,2.98,2.842,2.842,0,0,1-2.458,2.6,2.79,2.79,0,0,1-2.86-1.447.687.687,0,0,0-.738-.433c-1.763.016-3.526.007-5.379.007,0,.554,0,1.076,0,1.6-.01.932-.34,1.261-1.275,1.265-1.136,0-2.273,0-3.457,0v1.919h2.335c1.144,0,1.417.271,1.421,1.4,0,.152.012.3,0,.456a1.492,1.492,0,0,0,.762,1.663,2.634,2.634,0,0,1,.949,3.277,2.861,2.861,0,0,1-2.82,1.817,2.877,2.877,0,0,1-2.638-2.291,2.866,2.866,0,0,1,1.439-3.083c.481-.269.5-.338.341-1.315-.8,0-1.607,0-2.417,0-1.021,0-1.337-.315-1.341-1.319,0-.778,0-1.557-.009-2.335a.709.709,0,0,0-.044-.146h-1.824v18.169h.583c1.974,0,3.955.1,5.921-.026a2.841,2.841,0,0,1,2.766,4.416,10.881,10.881,0,0,1,.682,2.1,2.748,2.748,0,0,1-2.007,2.944c-.125.041-.248.089-.372.134Zm7.637-20.186c-1.277.159-1.653-.61-1.744-1.662,0-.037-.025-.073-.029-.11-.026-.3-.149-.535-.479-.505a1.185,1.185,0,0,0-.606.226,6.133,6.133,0,0,0-.615.669.983.983,0,0,1-1.285.237c-.619-.328-1.257-.629-1.84-1.013-1.371-.9-1.746-.82-1.044-2.758a.657.657,0,0,0-.156-.564.77.77,0,0,0-.578-.159,5.909,5.909,0,0,0-.863.278,1.049,1.049,0,0,1-1.326-.471c-.379-.612-.8-1.2-1.128-1.84-.722-1.4-1.011-1.478.479-2.763a.731.731,0,0,0,.2-.61.824.824,0,0,0-.472-.429,5.934,5.934,0,0,0-.885-.2c-.735-.172-.957-.44-.964-1.177-.007-.645,0-1.291,0-1.936,0-1.885,0-1.876,1.852-2.289a.729.729,0,0,0,.47-.428.846.846,0,0,0-.2-.613,5.282,5.282,0,0,0-.665-.619.973.973,0,0,1-.251-1.28,22.107,22.107,0,0,1,1.072-1.938c.759-1.139.662-1.712,2.636-.976a.722.722,0,0,0,.625-.146.821.821,0,0,0,.142-.621,5.427,5.427,0,0,0-.27-.866.994.994,0,0,1,.427-1.238,18.894,18.894,0,0,1,1.785-1.109c1.4-.7,1.529-1.2,2.9.458a.851.851,0,0,0,.566.177c.465.019.45-.38.513-.677.3-1.4.294-1.4,1.664-1.637.015,0,.027-.023.064-.056v-6.581c-.109,0-.181,0-.253,0a20.045,20.045,0,0,0-8.283,2.225,17.7,17.7,0,0,0-7.649,7.481,17.406,17.406,0,0,0-1.541,11.779,40.222,40.222,0,0,0,6.671,15.923,44.484,44.484,0,0,1,2.8,4.351,42.617,42.617,0,0,1,1.717,4.038h6.544Zm.033-3.1c0-.717-.019-1.434.007-2.149.014-.387-.128-.5-.5-.562a8.6,8.6,0,0,1-6.939-10.29,8.645,8.645,0,0,1,6.977-6.662c.164-.028.43-.187.435-.3.037-.795.02-1.593.02-2.389-.432,1.126-1.54.842-2.3,1.192-1.178.544-1.544-.608-2.244-1.152l-1.449.855a2.135,2.135,0,0,1-.438,2.922,2.176,2.176,0,0,1-2.9.419l-.87,1.495a2.159,2.159,0,0,1,1.1,2.741,2.182,2.182,0,0,1-2.323,1.834v1.763a2.1,2.1,0,0,1,2.317,1.788,2.167,2.167,0,0,1-1.094,2.768l.882,1.5a2.143,2.143,0,0,1,2.914.427,2.146,2.146,0,0,1,.424,2.912l1.446.838c.7-.57,1.072-1.669,2.221-1.149C3464.417-2164.665,3465.524-2164.947,3465.973-2163.816Zm8.583-6.429v-9.488h-6.638v9.488Zm-8.618,1.779v-13.056a6.577,6.577,0,0,0-5.687,6.8C3460.338-2171.575,3463.237-2168.374,3465.938-2168.467Zm.964,26.011h3.131c1.632,0,3.264.007,4.9,0a.959.959,0,0,0,1.079-.983c0-.632-.442-.975-1.265-.975q-7.8,0-15.6,0a3.062,3.062,0,0,0-.454.018.928.928,0,0,0-.622,1.5,1.563,1.563,0,0,0,1.036.42C3461.7-2142.44,3464.3-2142.456,3466.9-2142.456Zm.037-5.719c-2.617,0-5.235,0-7.852,0a.869.869,0,0,0-.98.81.985.985,0,0,0,.889,1.009,3.837,3.837,0,0,0,.511.013q7.425,0,14.85,0a3.227,3.227,0,0,0,.623-.031.93.93,0,0,0,.761-1.09c-.081-.479-.413-.711-1.064-.712Q3470.808-2148.179,3466.939-2148.174Zm13.354-35.431a.977.977,0,0,0,.975-.92.988.988,0,0,0-.919-.979.981.981,0,0,0-.972.924A.971.971,0,0,0,3480.292-2183.6Zm5.753,11.5a.98.98,0,0,0-.93-.965.97.97,0,0,0-.959.933.963.963,0,0,0,.927.96A.968.968,0,0,0,3486.046-2172.106Zm-12.433-17.24a.964.964,0,0,0-.951-.937.959.959,0,0,0-.925.962.954.954,0,0,0,.948.936A.959.959,0,0,0,3473.613-2189.346Zm.961,27.75a.949.949,0,0,0-.922.959.951.951,0,0,0,.946.936.951.951,0,0,0,.921-.96A.943.943,0,0,0,3474.573-2161.6Z" transform="translate(-3445.923 2197.901)" fill="#12263f"/>
      <path id="Trazado_184344" data-name="Trazado 184344" d="M3783.026-2097.924l1.721-.838.8,1.882-1.8.649Z" transform="translate(-3744.557 2110.075)" fill="#12263f"/>
      <path id="Trazado_184345" data-name="Trazado 184345" d="M3798.943-2026.858l-1.914-.161c.027-.6.053-1.189.081-1.826h1.833Z" transform="translate(-3756.963 2048.137)" fill="#12263f"/>
      <path id="Trazado_184346" data-name="Trazado 184346" d="M3740.576-1872.262l1.619,1.012-1.1,1.653-1.568-1.084Z" transform="translate(-3706.021 1909.422)" fill="#12263f"/>
      <path id="Trazado_184347" data-name="Trazado 184347" d="M3686.873-2188.538l1.9.705-.738,1.754-1.736-.636Z" transform="translate(-3658.868 2189.606)" fill="#12263f"/>
      <path id="Trazado_184348" data-name="Trazado 184348" d="M3796.023-2062.874l-1.889.226-.323-1.8,1.851-.442C3795.784-2064.208,3795.9-2063.572,3796.023-2062.874Z" transform="translate(-3754.112 2080.067)" fill="#12263f"/>
      <path id="Trazado_184349" data-name="Trazado 184349" d="M3758.673-1898.884l-1.679-.906.855-1.693,1.719.819Z" transform="translate(-3721.496 1935.309)" fill="#12263f"/>
      <path id="Trazado_184350" data-name="Trazado 184350" d="M3717.112-2174.615l1.741,1.052-1.062,1.585-1.585-.958Z" transform="translate(-3685.363 2177.272)" fill="#12263f"/>
      <path id="Trazado_184351" data-name="Trazado 184351" d="M3765.753-2127.877l1.494-1.187,1.189,1.658-1.607,1.031Z" transform="translate(-3729.255 2136.919)" fill="#12263f"/>
      <path id="Trazado_184352" data-name="Trazado 184352" d="M3656.708-2195.842l-.416,1.849-1.822-.313.241-1.887Z" transform="translate(-3630.672 2196.388)" fill="#12263f"/>
      <path id="Trazado_184353" data-name="Trazado 184353" d="M3703.823-1814.956l1.664.917-.78,1.649-1.777-.705Z" transform="translate(-3673.601 1858.656)" fill="#12263f"/>
      <path id="Trazado_184354" data-name="Trazado 184354" d="M3743.13-2153.182l1.214-1.474,1.491,1.365-1.383,1.317Z" transform="translate(-3709.214 2159.591)" fill="#12263f"/>
      <path id="Trazado_184355" data-name="Trazado 184355" d="M3722.683-1843.343l-1.073,1.589-1.6-1.039,1.107-1.641Z" transform="translate(-3688.732 1884.77)" fill="#12263f"/>
      <path id="Trazado_184356" data-name="Trazado 184356" d="M3771.385-1930.446l.71-1.761,1.779.663-.732,1.845Z" transform="translate(-3734.245 1962.527)" fill="#12263f"/>
    </g>
  </g>
</svg>
