<svg id="Grupo_111595" data-name="Grupo 111595" xmlns="http://www.w3.org/2000/svg" xmlns:xlink="http://www.w3.org/1999/xlink" width="114.636" height="114.637" viewBox="0 0 114.636 114.637">
  <defs>
    <radialGradient id="radial-gradient" cx="0.076" cy="0.019" r="1.465" gradientTransform="translate(0.001)" gradientUnits="objectBoundingBox">
      <stop offset="0" stop-color="#f6f6f7"/>
      <stop offset="0.477" stop-color="#f9f9fa"/>
      <stop offset="0.715" stop-color="#fff"/>
    </radialGradient>
  </defs>
  <g id="Grupo_18423" data-name="Grupo 18423" transform="translate(0 0)">
    <g id="Grupo_18421" data-name="Grupo 18421">
      <g id="Grupo_18420" data-name="Grupo 18420">
        <g id="Grupo_18419" data-name="Grupo 18419">
          <path id="Trazado_40936" data-name="Trazado 40936" d="M309.259,2203.037a57.318,57.318,0,1,1-57.317-57.316A57.317,57.317,0,0,1,309.259,2203.037Z" transform="translate(-194.623 -2145.721)" fill="#fff"/>
        </g>
      </g>
    </g>
    <path id="Trazado_40937" data-name="Trazado 40937" d="M308.648,2202.372a57.316,57.316,0,1,0-57.317,57.319A57.091,57.091,0,0,0,308.648,2202.372Z" transform="translate(-194.013 -2145.056)" fill="url(#radial-gradient)"/>
    <path id="Trazado_40938" data-name="Trazado 40938" d="M289.672,2196.986a43.75,43.75,0,1,0-43.75,43.75A43.587,43.587,0,0,0,289.672,2196.986Z" transform="translate(-188.43 -2139.479)" fill="none" stroke="#00223d" stroke-miterlimit="10" stroke-width="4"/>
    <g id="Grupo_18422" data-name="Grupo 18422" transform="translate(10.154 32.18)">
      <path id="Trazado_40939" data-name="Trazado 40939" d="M299.231,2164.488a57.325,57.325,0,0,1-98.686,57.081,57.143,57.143,0,0,0,98.686-57.081Z" transform="translate(-200.545 -2164.488)" fill="#eceef0"/>
    </g>
  </g>
  <g id="_83oj6T" data-name="83oj6T" transform="translate(-2839.68 2146.729)">
    <g id="Grupo_143141" data-name="Grupo 143141" transform="translate(2875.463 -2112.042)">
      <path id="Trazado_184357" data-name="Trazado 184357" d="M2875.463-2070.551c1.261-3.108,2.384-3.857,5.788-3.857,2.2,0,4.409,0,6.613,0,.684,0,1.324.1,1.323.961,0,.842-.622,1-1.31,1-2.484,0-4.969-.005-7.453,0a2.775,2.775,0,0,0-3.02,3q-.022,14.644,0,29.288a2.957,2.957,0,0,0,3.065,3.162c8.993.026,17.985.011,26.978.008a4.846,4.846,0,0,0,.547-.079v-1.12c0-2.274-.018-4.549.005-6.823a4.8,4.8,0,0,1,4.738-4.763c.944-.016,1.89.015,2.834-.009.7-.018,1.232.235,1.211.969-.02.711-.555.979-1.248.966q-1.312-.025-2.625,0a2.9,2.9,0,0,0-2.985,2.985c-.023,2.061-.005,4.122-.005,6.331a7.035,7.035,0,0,0,.627-.486c3.22-3.213,6.448-6.418,9.632-9.666a2.284,2.284,0,0,0,.584-1.448c.039-6.3.014-12.6.05-18.9a1.64,1.64,0,0,1,.568-1.277c.315-.15.884.236,1.342.387v21.426l-13.444,13.443h-29.618a5.34,5.34,0,0,1-4.2-4.2Z" transform="translate(-2875.463 2082.314)" fill="#12263f"/>
      <path id="Trazado_184358" data-name="Trazado 184358" d="M2964.692-2112.042a2.443,2.443,0,0,1,1.481,2.609c-.061,1.639,0,3.282-.019,4.923a2.063,2.063,0,0,1-2.318,2.329q-5.552.024-11.1,0a2.064,2.064,0,0,1-2.317-2.331c-.014-1.641.044-3.284-.019-4.923a2.437,2.437,0,0,1,1.482-2.607Zm-12.3,7.838h11.755v-5.84h-11.755Z" transform="translate(-2934.653 2112.042)" fill="#12263f"/>
      <path id="Trazado_184359" data-name="Trazado 184359" d="M2958.321-2045.935c-1.853,0-3.705.009-5.558,0-1.578-.01-2.291-.73-2.3-2.321-.012-1.748-.015-3.5,0-5.243a2,2,0,0,1,2.268-2.25q5.61-.021,11.221,0a2,2,0,0,1,2.248,2.271c.015,1.782.019,3.565,0,5.348a1.976,1.976,0,0,1-2.215,2.194C2962.1-2045.922,2960.208-2045.935,2958.321-2045.935Zm5.9-1.988v-5.819h-11.786v5.819Z" transform="translate(-2934.699 2067.585)" fill="#12263f"/>
      <path id="Trazado_184360" data-name="Trazado 184360" d="M2958.257-1989.571c-1.887,0-3.774.014-5.661,0a1.926,1.926,0,0,1-2.142-2.141q-.034-2.725,0-5.451a1.906,1.906,0,0,1,2.112-2.16q5.766-.023,11.531,0a1.889,1.889,0,0,1,2.089,2.076q.04,2.777,0,5.555a1.931,1.931,0,0,1-2.164,2.12C2962.1-1989.559,2960.178-1989.571,2958.257-1989.571Zm-5.82-7.783v5.771h11.747v-5.771Z" transform="translate(-2934.689 2023.013)" fill="#12263f"/>
      <path id="Trazado_184361" data-name="Trazado 184361" d="M3038.252-2079.113a11.189,11.189,0,0,1,1.169.827c.481.436.62,1.061.058,1.429a1.451,1.451,0,0,1-1.361-.068,37.246,37.246,0,0,1-2.837-2.793.973.973,0,0,1,.029-1.489c.934-.945,1.835-1.931,2.846-2.786.281-.237.9-.074,1.365-.095a3.491,3.491,0,0,1-.05,1.388c-.2.4-.705.647-1.077.96l.131.293c1.162,0,2.329.063,3.481-.043a1.229,1.229,0,0,0,.776-.9c.064-2.621.047-5.245.033-7.867,0-.814-.53-1.051-1.264-1.045-1.783.013-3.567,0-5.35.007-.739,0-1.322-.262-1.179-1.062a1.324,1.324,0,0,1,.967-.819q3.091-.111,6.188-.013a2.643,2.643,0,0,1,2.541,2.593q.074,4.247,0,8.5a2.668,2.668,0,0,1-2.656,2.584c-1.152.037-2.306.028-3.459.043-.02,0-.038.052-.057.08Z" transform="translate(-3001.447 2097.188)" fill="#12263f"/>
      <path id="Trazado_184362" data-name="Trazado 184362" d="M2900.563-2023.293c-1,0-2,.006-3,0-2.175-.014-3.231-1.052-3.239-3.2q-.014-3.724,0-7.448a2.84,2.84,0,0,1,3.055-3.091c1.783-.02,3.567,0,5.35-.008.689,0,1.333.116,1.35.949.019.923-.669.988-1.395.979-1.678-.019-3.357.012-5.035-.013-.946-.014-1.43.336-1.418,1.348q.043,3.619,0,7.238c-.011.937.375,1.348,1.313,1.317.976-.031,1.953-.007,3.2-.007-.472-.491-.8-.82-1.113-1.158-.439-.469-.616-1.071-.057-1.445a1.448,1.448,0,0,1,1.362.053,36.879,36.879,0,0,1,2.843,2.788,1.029,1.029,0,0,1-.071,1.577c-.882.9-1.769,1.791-2.667,2.672-.485.475-1.056.636-1.561.083a.948.948,0,0,1,.2-1.469c.341-.3.732-.534,1.1-.8Z" transform="translate(-2890.359 2052.795)" fill="#12263f"/>
      <path id="Trazado_184363" data-name="Trazado 184363" d="M2906.876-1938.508c1.85,0,3.7-.015,5.552,0,1.621.017,2.249.677,2.262,2.309.026,3.321-.2,3.546-3.549,3.546-3.213,0-6.425.005-9.637,0-1.875,0-2.483-.629-2.5-2.525,0-.314,0-.628,0-.943.023-1.738.659-2.375,2.42-2.387C2903.244-1938.517,2905.06-1938.508,2906.876-1938.508Zm-5.853,3.82H2912.7v-1.817h-11.679Z" transform="translate(-2894.06 1974.964)" fill="#12263f"/>
      <path id="Trazado_184364" data-name="Trazado 184364" d="M2986.818-1936.545c-.733,0-1.467.007-2.2,0-.628-.008-1.127-.248-1.151-.943s.453-.979,1.093-.984q2.305-.018,4.611,0c.644,0,1.1.267,1.086.982s-.5.944-1.132.948C2988.355-1936.54,2987.586-1936.545,2986.818-1936.545Z" transform="translate(-2960.779 1974.94)" fill="#12263f"/>
      <path id="Trazado_184365" data-name="Trazado 184365" d="M2985.069-1917.988c-.813,0-1.555-.027-1.56-.95,0-.887.692-1.007,1.412-1.016s1.421.117,1.444.987C2986.389-1918.051,2985.663-1917.973,2985.069-1917.988Z" transform="translate(-2960.813 1960.303)" fill="#12263f"/>
      <path id="Trazado_184366" data-name="Trazado 184366" d="M3003.715-1917.971c-.7,0-1.407-.07-1.368-1.009.038-.915.753-.953,1.445-.955.717,0,1.4.121,1.371,1.029C3005.137-1917.967,3004.4-1917.978,3003.715-1917.971Z" transform="translate(-2975.693 1960.288)" fill="#12263f"/>
    </g>
  </g>
</svg>
