<svg id="Grupo_111597" data-name="Grupo 111597" xmlns="http://www.w3.org/2000/svg" xmlns:xlink="http://www.w3.org/1999/xlink" width="114.636" height="114.637" viewBox="0 0 114.636 114.637">
  <defs>
    <radialGradient id="radial-gradient" cx="0.076" cy="0.019" r="1.465" gradientTransform="translate(0.001)" gradientUnits="objectBoundingBox">
      <stop offset="0" stop-color="#f6f6f7"/>
      <stop offset="0.477" stop-color="#f9f9fa"/>
      <stop offset="0.715" stop-color="#fff"/>
    </radialGradient>
  </defs>
  <g id="Grupo_18423" data-name="Grupo 18423" transform="translate(0 0)">
    <g id="Grupo_18421" data-name="Grupo 18421">
      <g id="Grupo_18420" data-name="Grupo 18420">
        <g id="Grupo_18419" data-name="Grupo 18419">
          <path id="Trazado_40936" data-name="Trazado 40936" d="M309.259,2203.037a57.318,57.318,0,1,1-57.317-57.316A57.317,57.317,0,0,1,309.259,2203.037Z" transform="translate(-194.623 -2145.721)" fill="#fff"/>
        </g>
      </g>
    </g>
    <path id="Trazado_40937" data-name="Trazado 40937" d="M308.648,2202.372a57.316,57.316,0,1,0-57.317,57.319A57.091,57.091,0,0,0,308.648,2202.372Z" transform="translate(-194.013 -2145.056)" fill="url(#radial-gradient)"/>
    <path id="Trazado_40938" data-name="Trazado 40938" d="M289.672,2196.986a43.75,43.75,0,1,0-43.75,43.75A43.587,43.587,0,0,0,289.672,2196.986Z" transform="translate(-188.43 -2139.479)" fill="none" stroke="#00223d" stroke-miterlimit="10" stroke-width="4"/>
    <g id="Grupo_18422" data-name="Grupo 18422" transform="translate(10.154 32.18)">
      <path id="Trazado_40939" data-name="Trazado 40939" d="M299.231,2164.488a57.325,57.325,0,0,1-98.686,57.081,57.143,57.143,0,0,0,98.686-57.081Z" transform="translate(-200.545 -2164.488)" fill="#eceef0"/>
    </g>
  </g>
  <g id="YhmUKV.tif" transform="translate(-3218.182 2718.622)">
    <g id="Grupo_143142" data-name="Grupo 143142" transform="translate(3251.588 -2689.368)">
      <path id="Trazado_184367" data-name="Trazado 184367" d="M3284.769-2521.455h-1.83c0-1-.036-1.983.013-2.962.032-.63-.154-.83-.8-.823-3,.034-5.993.028-8.99,0-.567,0-.784.136-.756.736.047,1.006.013,2.015.013,3.051h-1.839v-3.8h-.884q-7.04,0-14.081,0a3.724,3.724,0,0,1-4.015-3.935q-.02-13.589,0-27.178a3.724,3.724,0,0,1,2.822-3.833,7.443,7.443,0,0,1,.917-.113c0,.561.027,1.042-.018,1.515-.012.129-.217.295-.367.348a1.99,1.99,0,0,0-1.521,2.129c-.006,7.648,0,15.3-.017,22.946,0,.622.315.6.739.6q8.032-.008,16.064,0h29.814c.925,0,.926,0,.926-.929q0-11.242,0-22.483c0-1.6-.684-2.28-2.295-2.281a5.955,5.955,0,0,0-.792.006c-.564.075-.7-.167-.7-.7,0-1.393-.062-1.136,1.165-1.149a7.326,7.326,0,0,1,1.578.088,3.635,3.635,0,0,1,2.9,3.56q.01,13.919-.021,27.839a3.644,3.644,0,0,1-3.746,3.576c-4.451.012-8.9,0-13.353,0-.914,0-.915,0-.915.944C3284.768-2523.382,3284.769-2522.458,3284.769-2521.455Zm-7.588-5.627c6.961,0,13.924-.037,20.885.023,2.094.018,3.056-.6,2.9-2.915-.074-1.09.1-.97-1.019-.97q-22.538,0-45.076,0c-1.451,0-1.451,0-1.445,1.456.006,1.706.707,2.408,2.408,2.408Z" transform="translate(-3251.588 2577.425)" fill="#12263f"/>
      <path id="Trazado_184368" data-name="Trazado 184368" d="M3296.417-2618.522h-1.83v-24.284q0-4.232,0-8.464c0-1.652.675-2.317,2.336-2.317h28.5c1.7,0,2.345.651,2.345,2.363q0,10.251,0,20.5v.808h-1.832v-.823c0-6.724-.009-13.448.014-20.171,0-.651-.14-.86-.832-.858q-13.95.036-27.9,0c-.637,0-.835.173-.813.813.046,1.365.014,2.733.014,4.1,0,.871,0,.874.855.874h22.9c0,.541.026,1.02-.017,1.493-.011.124-.222.279-.371.326a2.03,2.03,0,0,1-.591.016c-7.317,0-14.633.01-21.95-.016-.679,0-.842.187-.84.851q.034,11.937.015,23.875Z" transform="translate(-3288.89 2658.329)" fill="#12263f"/>
      <path id="Trazado_184369" data-name="Trazado 184369" d="M3325.578-2557.135c.925.383,1.765.712,2.586,1.081.357.16.551.062.858-.167a1.408,1.408,0,0,0,.412-2.114,15.646,15.646,0,0,1-.781-1.867l5.432-2.253c.351.844.714,1.637,1.007,2.455.177.5.427.734.968.613a1.325,1.325,0,0,1,.526.01c.433.083.632-.121.779-.506.322-.84.684-1.664,1.062-2.57l5.435,2.252c-.357.87-.667,1.692-1.031,2.489a.832.832,0,0,0,.188,1.021,1.346,1.346,0,0,0,2.009.363,16.591,16.591,0,0,1,1.9-.8l2.257,5.438c-.866.36-1.666.716-2.483,1.023-.425.16-.677.361-.59.859a6.159,6.159,0,0,0,.021.722,1.058,1.058,0,0,0,.411.617c.832.4,1.694.729,2.635,1.124l-2.245,5.434c-.865-.355-1.685-.668-2.482-1.028a.756.756,0,0,0-1.028.192c-.8.873-.823.851-.379,1.932.258.63.52,1.258.817,1.975l-5.43,2.256c-.364-.865-.733-1.684-1.048-2.523-.156-.413-.363-.622-.82-.549a2.133,2.133,0,0,1-.659,0c-.434-.068-.627.14-.772.52-.321.84-.681,1.665-1.049,2.553l-5.436-2.255c.371-.9.692-1.741,1.063-2.558.176-.388.046-.592-.185-.916-.619-.87-1.289-.828-2.125-.366a18.035,18.035,0,0,1-1.825.769l-2.254-5.433c.886-.371,1.708-.734,2.545-1.056a.692.692,0,0,0,.531-.77c-.037-1.251-.018-1.251-1.164-1.725-.609-.251-1.216-.506-1.911-.8Zm.194,4.432c.8.333,1.507.645,2.226.915.384.144.433.347.411.747a28.043,28.043,0,0,0,0,3.086c.021.381-.052.556-.4.69-.734.284-1.454.6-2.237.934l.792,1.89a.893.893,0,0,0,.215,0q.736-.3,1.468-.6c1.018-.424,1.006-.416,1.678.42a10,10,0,0,0,1.038,1.107c.384.351.813.652,1.219.973l-1.08,2.7,1.97.809c.313-.756.62-1.435.874-2.134.152-.42.346-.534.82-.5a20.3,20.3,0,0,0,2.955.006c.454-.031.674.035.831.478.254.714.579,1.4.893,2.148l1.967-.826c-.318-.774-.594-1.49-.906-2.189a.609.609,0,0,1,.2-.835,25.7,25.7,0,0,0,2.18-2.187.6.6,0,0,1,.829-.2c.7.31,1.417.591,2.2.912l.82-1.974c-.759-.319-1.457-.639-2.175-.9-.411-.153-.476-.379-.454-.8a25.552,25.552,0,0,0,0-2.955c-.028-.455.057-.68.493-.836.715-.257,1.407-.575,2.14-.881l-.822-1.969c-.777.315-1.5.577-2.191.9-.406.19-.592.066-.871-.249a22.762,22.762,0,0,0-2.092-2.089c-.352-.305-.433-.525-.24-.938.315-.673.576-1.372.888-2.128l-1.974-.825c-.336.8-.614,1.542-.965,2.246a.845.845,0,0,1-.627.36c-1.05.037-2.1-.01-3.152.028-.365.014-.57-.043-.7-.4-.221-.6-.466-1.191-.74-1.768-.074-.154-.335-.369-.437-.335-.573.191-1.125.45-1.718.7.327.8.6,1.515.918,2.216a.559.559,0,0,1-.185.773c-.779.7-1.523,1.451-2.23,2.228-.255.28-.428.354-.772.2-.716-.322-1.453-.6-2.238-.917Z" transform="translate(-3313.821 2579.272)" fill="#12263f"/>
      <path id="Trazado_184370" data-name="Trazado 184370" d="M3363.746-2668.568h-1.829v-18.9h-29.471v1.808h-1.822a20.01,20.01,0,0,1,.018-2.23,1.757,1.757,0,0,1,1.593-1.456,5.307,5.307,0,0,1,.66-.018h28.557c1.647,0,2.294.638,2.294,2.262q0,8.86,0,17.721Z" transform="translate(-3320.132 2689.368)" fill="#12263f"/>
      <path id="Trazado_184371" data-name="Trazado 184371" d="M3384.685-2257.019l-1.372,1.264c-.381-.38-.771-.822-1.219-1.193a1.5,1.5,0,0,0-.854-.364q-8.123-.032-16.246,0a1.537,1.537,0,0,0-.907.392,14.138,14.138,0,0,0-1.145,1.251l-1.352-1.444c.609-.591,1.241-1.231,1.908-1.833a1.05,1.05,0,0,1,.653-.208q8.948-.016,17.9,0a1.046,1.046,0,0,1,.655.206C3383.369-2258.34,3384-2257.694,3384.685-2257.019Z" transform="translate(-3347.016 2316.159)" fill="#12263f"/>
      <path id="Trazado_184372" data-name="Trazado 184372" d="M3354.157-2624.514v1.752h-1.779v-1.752Z" transform="translate(-3339.024 2633.107)" fill="#12263f"/>
      <path id="Trazado_184373" data-name="Trazado 184373" d="M3569.06-2486.512h-1.748v-1.768h1.748Z" transform="translate(-3525.482 2514.922)" fill="#12263f"/>
      <path id="Trazado_184374" data-name="Trazado 184374" d="M3325.385-2622.725h-1.753v-1.751h1.753Z" transform="translate(-3314.086 2633.074)" fill="#12263f"/>
      <path id="Trazado_184375" data-name="Trazado 184375" d="M3380.775-2624.522h1.773v1.743h-1.773Z" transform="translate(-3363.659 2633.114)" fill="#12263f"/>
      <path id="Trazado_184376" data-name="Trazado 184376" d="M3567.272-2515.531v-1.8a3.006,3.006,0,0,1,.416-.057c1.633.022,1.335-.248,1.377,1.4.008.342-.119.478-.462.463C3568.188-2515.545,3567.771-2515.531,3567.272-2515.531Z" transform="translate(-3525.447 2540.177)" fill="#12263f"/>
      <path id="Trazado_184377" data-name="Trazado 184377" d="M3531.562-2459.833h1.719v1.771h-1.719Z" transform="translate(-3494.468 2490.245)" fill="#12263f"/>
      <path id="Trazado_184378" data-name="Trazado 184378" d="M3389.015-2491.925a4.851,4.851,0,0,1-4.852-4.893,4.864,4.864,0,0,1,4.889-4.864,4.889,4.889,0,0,1,4.862,4.9A4.866,4.866,0,0,1,3389.015-2491.925Zm3.022-4.857a3.005,3.005,0,0,0-2.954-3.024,3.022,3.022,0,0,0-3.062,2.991,3.05,3.05,0,0,0,3.03,3.033A3.021,3.021,0,0,0,3392.037-2496.782Z" transform="translate(-3366.598 2526.549)" fill="#12263f"/>
    </g>
  </g>
</svg>
